<svg width="19" height="19" viewBox="0 0 19 19" fill="none" xmlns="http://www.w3.org/2000/svg">
<path d="M7.9166 15.0417C7.73162 15.042 7.55236 14.9776 7.40993 14.8596C7.32977 14.7931 7.2635 14.7115 7.21493 14.6194C7.16636 14.5273 7.13644 14.4265 7.12688 14.3228C7.11732 14.2191 7.12831 14.1146 7.15922 14.0151C7.19013 13.9157 7.24035 13.8233 7.30701 13.7433L10.8537 9.49999L7.43368 5.24874C7.36792 5.16777 7.31881 5.07459 7.28918 4.97457C7.25954 4.87455 7.24997 4.76966 7.261 4.66593C7.27204 4.5622 7.30347 4.46167 7.35348 4.37013C7.40349 4.27858 7.4711 4.19782 7.55243 4.13249C7.63434 4.06042 7.73026 4.00606 7.83418 3.97282C7.93809 3.93958 8.04776 3.92818 8.15629 3.93933C8.26482 3.95048 8.36988 3.98394 8.46487 4.03762C8.55985 4.09129 8.64272 4.16402 8.70826 4.25124L12.532 9.00124C12.6485 9.1429 12.7121 9.32058 12.7121 9.50395C12.7121 9.68732 12.6485 9.865 12.532 10.0067L8.57368 14.7567C8.49426 14.8525 8.39338 14.9282 8.27921 14.9777C8.16504 15.0272 8.04081 15.0491 7.9166 15.0417Z" fill="#A63CED"/>
</svg>
