<svg width="32" height="26" viewBox="0 0 32 26" fill="none" xmlns="http://www.w3.org/2000/svg">
<path d="M21.6667 8.04175C23.5552 10.5606 23.5552 15.4396 21.6667 17.9584" stroke="white" stroke-width="2" stroke-linecap="round" stroke-linejoin="round"/>
<path d="M25.9167 3.0835C31.5664 8.47816 31.6004 17.5576 25.9167 22.9168" stroke="white" stroke-width="2" stroke-linecap="round" stroke-linejoin="round"/>
<path d="M1.83337 17.192V8.80677C1.83337 7.9936 2.46804 7.33343 3.25004 7.33343H8.33021C8.51768 7.33277 8.70307 7.29414 8.87521 7.21988C9.04735 7.14562 9.20267 7.03726 9.33179 6.90135L13.5818 2.10168C14.4743 1.17235 16 1.8311 16 3.14435V22.8558C16 24.179 14.4559 24.8321 13.569 23.8843L9.33321 19.1116C9.20371 18.9718 9.04683 18.8602 8.87232 18.7836C8.69782 18.7071 8.50942 18.6673 8.31887 18.6668H3.25004C2.46804 18.6668 1.83337 18.0066 1.83337 17.192Z" stroke="white" stroke-width="2" stroke-linecap="round" stroke-linejoin="round"/>
</svg>
