<svg width="23" height="20" viewBox="0 0 23 20" fill="none" xmlns="http://www.w3.org/2000/svg">
<path d="M22.9647 17.3159L21.8696 13.1882L18.42 0.794228C18.3454 0.520834 18.163 0.287429 17.9125 0.145124C17.6621 0.0028187 17.3642 -0.036787 17.0839 0.0349798L12.8458 1.10434C12.7446 0.994889 12.6214 0.907038 12.4838 0.846309C12.3463 0.785581 12.1973 0.753286 12.0463 0.751453H1.09512C0.804678 0.751453 0.526129 0.864118 0.320754 1.06466C0.115379 1.26521 0 1.5372 0 1.82082V18.9306C0 19.2143 0.115379 19.4862 0.320754 19.6868C0.526129 19.8873 0.804678 20 1.09512 20H12.0463C12.3368 20 12.6153 19.8873 12.8207 19.6868C13.0261 19.4862 13.1415 19.2143 13.1415 18.9306V10.3757L15.5507 19.1659C15.6149 19.3992 15.7581 19.6044 15.9569 19.7481C16.1558 19.8918 16.3986 19.9655 16.6459 19.9572C16.7405 19.9677 16.836 19.9677 16.9306 19.9572L22.22 18.5777C22.3599 18.5412 22.4909 18.478 22.6056 18.3918C22.7202 18.3055 22.8163 18.1979 22.8881 18.0751C23.0036 17.8386 23.0307 17.57 22.9647 17.3159ZM5.44276 17.904H2.15739V15.7653H5.44276V17.904ZM5.44276 13.6266H2.15739V7.21041H5.44276V13.6266ZM5.44276 5.07168H2.15739V2.93296H5.44276V5.07168ZM10.9184 17.904H7.633V15.7653H10.9184V17.904ZM10.9184 13.6266H7.633V7.21041H10.9184V13.6266ZM10.9184 5.07168H7.633V2.93296H10.9184V5.07168ZM13.3824 3.21099L16.5583 2.37689L17.1277 4.44076L13.9519 5.27486L13.3824 3.21099ZM16.2188 13.541L14.5213 7.33873L17.6972 6.50463L19.3946 12.7069L16.2188 13.541ZM17.3139 17.6688L16.7444 15.6049L19.9203 14.7708L20.4897 16.8347L17.3139 17.6688Z" fill="#C281ED"/>
</svg>
