<svg width="96" height="96" viewBox="0 0 96 96" fill="none" xmlns="http://www.w3.org/2000/svg">
<rect width="96" height="96" rx="48" fill="white"/>
<path d="M59.7524 52.7108C59.7279 54.5402 60.1903 58.8486 60.1903 58.8486L49.0698 58.4353C49.0698 58.4353 49.2534 53.9751 48.4635 51.8847C47.6365 49.6963 45.7588 48.9257 45.2879 46.7594C44.967 45.2838 44.8743 43.1412 44.8743 43.1412L43.6315 32.2854C43.6315 32.2854 43.0559 29.4551 44.8355 28.9842C46.2313 28.615 47.5965 30.4907 47.5965 30.4907C47.5965 30.4907 46.5807 25.9123 48.5928 25.38C49.9886 25.0107 50.8942 26.6357 50.8942 26.6357C50.8942 26.6357 50.7201 23.0901 52.3353 22.8986C54.8892 22.5957 54.8436 25.9634 54.8436 25.9634C54.8436 25.9634 55.1352 23.9305 56.9529 24.2872C58.2329 24.5383 58.3387 27.305 58.3387 27.305C58.3387 27.305 58.1471 39.8866 59.7524 39.9504C61 40 64.2543 32.7944 65.19 32.1741C66.1256 31.5537 68.4264 32.8091 67.7132 34.1162C67.3256 34.8267 65.5498 39.2845 63.4033 44.2042C61.6006 48.3362 59.7636 51.8757 59.7524 52.7108Z" fill="#B98864"/>
<path d="M60.1903 58.8486L60.4389 58.8219C60.4466 58.894 60.4226 58.966 60.3731 59.0191C60.3236 59.0721 60.2535 59.1011 60.181 59.0984L60.1903 58.8486ZM59.7524 52.7108L59.5024 52.7075L59.5024 52.7075L59.7524 52.7108ZM59.7524 39.9504L59.7623 39.7006L59.7623 39.7006L59.7524 39.9504ZM58.3387 27.305L58.5889 27.2954L58.5887 27.3088L58.3387 27.305ZM54.8436 25.9634L55.0911 25.9989C55.0724 26.1294 54.9556 26.223 54.8242 26.2127C54.6927 26.2024 54.5919 26.0919 54.5937 25.9601L54.8436 25.9634ZM52.3353 22.8986L52.3059 22.6503L52.3059 22.6503L52.3353 22.8986ZM50.8942 26.6357L51.1439 26.6235C51.1496 26.7395 51.0747 26.8441 50.963 26.8761C50.8514 26.908 50.7324 26.8589 50.6759 26.7574L50.8942 26.6357ZM48.5928 25.38L48.6567 25.6217L48.6567 25.6217L48.5928 25.38ZM47.5965 30.4907L47.8406 30.4366C47.8662 30.5522 47.8072 30.6699 47.6993 30.7186C47.5913 30.7673 47.464 30.7336 47.3944 30.6378L47.5965 30.4907ZM44.8355 28.9842L44.8994 29.2259L44.8994 29.2259L44.8355 28.9842ZM43.6315 32.2854L43.8765 32.2355L43.8787 32.2462L43.8799 32.2569L43.6315 32.2854ZM44.8743 43.1412L45.1226 43.1127L45.1236 43.1215L45.124 43.1304L44.8743 43.1412ZM45.2879 46.7594L45.5321 46.7063L45.5321 46.7063L45.2879 46.7594ZM48.4635 51.8847L48.6973 51.7963L48.4635 51.8847ZM49.0698 58.4353L49.0605 58.6851C48.9941 58.6826 48.9314 58.6538 48.8862 58.605C48.8411 58.5562 48.8173 58.4914 48.82 58.425L49.0698 58.4353ZM56.9529 24.2872L57.0011 24.0418L57.0011 24.0418L56.9529 24.2872ZM63.4033 44.2042L63.1742 44.1042L63.1742 44.1042L63.4033 44.2042ZM60.1903 58.8486C59.9417 58.8752 59.9417 58.8752 59.9417 58.8752C59.9417 58.8751 59.9417 58.8751 59.9417 58.875C59.9417 58.8749 59.9417 58.8747 59.9416 58.8744C59.9416 58.8739 59.9415 58.8731 59.9414 58.872C59.9412 58.8699 59.9408 58.8668 59.9404 58.8626C59.9395 58.8543 59.9382 58.8421 59.9365 58.826C59.9331 58.7939 59.9281 58.7465 59.9218 58.6857C59.9092 58.564 59.8912 58.3882 59.8697 58.1715C59.8266 57.7383 59.7695 57.1414 59.7131 56.4872C59.6007 55.1831 59.49 53.6365 59.5024 52.7075L60.0024 52.7142C59.9903 53.6145 60.0985 55.1368 60.2112 56.4443C60.2674 57.0958 60.3243 57.6904 60.3672 58.1221C60.3887 58.3379 60.4066 58.513 60.4191 58.6341C60.4254 58.6946 60.4304 58.7416 60.4337 58.7735C60.4354 58.7894 60.4367 58.8015 60.4376 58.8097C60.438 58.8137 60.4383 58.8168 60.4386 58.8189C60.4387 58.8199 60.4387 58.8206 60.4388 58.8211C60.4388 58.8214 60.4388 58.8216 60.4389 58.8217C60.4389 58.8218 60.4389 58.8218 60.4389 58.8218C60.4389 58.8219 60.4389 58.8219 60.1903 58.8486ZM67.4938 33.9965C67.6316 33.7439 67.6241 33.5027 67.5231 33.2758C67.4179 33.0397 67.2067 32.8129 66.9318 32.6307C66.6584 32.4495 66.3394 32.3242 66.0418 32.2792C65.7401 32.2335 65.4915 32.2741 65.3281 32.3824L65.0518 31.9657C65.3563 31.7638 65.7461 31.7287 66.1167 31.7848C66.4914 31.8415 66.8785 31.9955 67.208 32.214C67.5362 32.4315 67.8249 32.7248 67.9798 33.0723C68.1388 33.4291 68.1515 33.835 67.9327 34.236L67.4938 33.9965ZM65.3281 32.3824C65.2554 32.4306 65.1263 32.573 64.9431 32.8325C64.7676 33.0811 64.5627 33.4069 64.3356 33.7862C63.8801 34.547 63.3513 35.4962 62.8044 36.4389C62.2611 37.3754 61.7024 38.301 61.1987 38.9909C60.9474 39.3351 60.7031 39.6301 60.4752 39.8399C60.3611 39.9449 60.2448 40.0345 60.1279 40.0978C60.0121 40.1606 59.8809 40.2057 59.7424 40.2002L59.7623 39.7006C59.7799 39.7013 59.8203 39.6959 59.8896 39.6583C59.9579 39.6212 60.0404 39.5605 60.1365 39.472C60.3291 39.2948 60.551 39.0301 60.7949 38.6961C61.2815 38.0295 61.8287 37.1243 62.3719 36.188C62.9115 35.258 63.4497 34.2925 63.9066 33.5294C64.1356 33.1467 64.3482 32.8082 64.5346 32.5442C64.7133 32.2911 64.8906 32.0726 65.0518 31.9657L65.3281 32.3824ZM59.7424 40.2002C59.5532 40.1927 59.4015 40.0922 59.2868 39.9658C59.1735 39.841 59.0801 39.674 59.0006 39.4863C58.8409 39.1097 58.7129 38.5907 58.608 37.9907C58.3974 36.7864 58.2704 35.1951 58.1939 33.6159C58.1173 32.0344 58.091 30.4559 58.0839 29.2734C58.0803 28.682 58.0815 28.1892 58.0837 27.8442C58.0847 27.6717 58.086 27.5361 58.087 27.4436C58.0875 27.3973 58.088 27.3618 58.0883 27.3378C58.0884 27.3258 58.0886 27.3167 58.0886 27.3106C58.0887 27.3075 58.0887 27.3052 58.0887 27.3036C58.0888 27.3028 58.0888 27.3023 58.0888 27.3019C58.0888 27.3016 58.0888 27.3015 58.0888 27.3014C58.0888 27.3013 58.0888 27.3012 58.3387 27.305C58.5887 27.3088 58.5887 27.3089 58.5887 27.3089C58.5887 27.309 58.5887 27.3092 58.5887 27.3093C58.5887 27.3097 58.5887 27.3103 58.5887 27.311C58.5887 27.3125 58.5886 27.3147 58.5886 27.3177C58.5885 27.3237 58.5884 27.3326 58.5882 27.3444C58.5879 27.368 58.5875 27.4032 58.587 27.4491C58.586 27.5409 58.5847 27.6756 58.5836 27.8473C58.5815 28.1906 58.5803 28.6813 58.5839 29.2704C58.591 30.4489 58.6171 32.0198 58.6933 33.5917C58.7695 35.1658 58.8955 36.7319 59.1005 37.9046C59.2034 38.4931 59.3237 38.9675 59.4609 39.2912C59.5297 39.4535 59.5968 39.5634 59.6571 39.6299C59.716 39.6948 59.7508 39.7001 59.7623 39.7006L59.7424 40.2002ZM54.8436 25.9634C54.5937 25.9601 54.5937 25.9601 54.5937 25.9602C54.5937 25.9602 54.5937 25.9603 54.5937 25.9603C54.5937 25.9603 54.5937 25.9603 54.5937 25.9602C54.5937 25.96 54.5937 25.9597 54.5937 25.9591C54.5937 25.958 54.5937 25.9561 54.5937 25.9535C54.5937 25.9482 54.5937 25.9398 54.5935 25.9286C54.5933 25.9063 54.5926 25.8727 54.5908 25.8295C54.5873 25.7432 54.5795 25.6189 54.5625 25.4704C54.5283 25.1718 54.4576 24.7826 54.3137 24.4068C54.1694 24.0298 53.9579 23.6831 53.6522 23.4478C53.3533 23.2178 52.9439 23.0782 52.3648 23.1468L52.3059 22.6503C53.0038 22.5676 53.5463 22.7354 53.9572 23.0516C54.3612 23.3626 54.6172 23.801 54.7807 24.2281C54.9446 24.6564 55.0222 25.0902 55.0592 25.4135C55.0778 25.576 55.0865 25.7125 55.0904 25.8091C55.0924 25.8575 55.0932 25.8959 55.0935 25.9228C55.0937 25.9362 55.0937 25.9467 55.0937 25.9541C55.0937 25.9578 55.0937 25.9608 55.0937 25.9629C55.0936 25.9639 55.0936 25.9648 55.0936 25.9655C55.0936 25.9658 55.0936 25.9661 55.0936 25.9663C55.0936 25.9664 55.0936 25.9665 55.0936 25.9666C55.0936 25.9667 55.0936 25.9668 54.8436 25.9634ZM52.3648 23.1468C52.0648 23.1824 51.8312 23.3715 51.6444 23.6898C51.4555 24.0118 51.3324 24.4392 51.2554 24.8818C51.179 25.321 51.1509 25.7572 51.1422 26.0854C51.1378 26.249 51.1383 26.3846 51.1399 26.4789C51.1406 26.526 51.1417 26.5627 51.1425 26.5874C51.1429 26.5997 51.1433 26.609 51.1436 26.6151C51.1437 26.6182 51.1438 26.6204 51.1438 26.6218C51.1439 26.6225 51.1439 26.623 51.1439 26.6233C51.1439 26.6234 51.1439 26.6235 51.1439 26.6235C51.1439 26.6235 51.1439 26.6235 51.1439 26.6235C51.1439 26.6235 51.1439 26.6235 50.8942 26.6357C50.6445 26.648 50.6445 26.6479 50.6445 26.6478C50.6445 26.6478 50.6445 26.6477 50.6445 26.6476C50.6445 26.6474 50.6445 26.6472 50.6445 26.6469C50.6444 26.6463 50.6444 26.6455 50.6444 26.6445C50.6443 26.6425 50.6441 26.6396 50.644 26.636C50.6437 26.6286 50.6433 26.618 50.6428 26.6043C50.6419 26.5769 50.6408 26.5373 50.6399 26.4871C50.6383 26.3868 50.6378 26.2439 50.6424 26.0721C50.6515 25.7295 50.6808 25.2673 50.7628 24.7961C50.8442 24.3284 50.9804 23.8335 51.2131 23.4368C51.448 23.0365 51.7983 22.7105 52.3059 22.6503L52.3648 23.1468ZM50.8942 26.6357C50.6759 26.7574 50.6759 26.7575 50.6759 26.7576C50.6759 26.7576 50.676 26.7576 50.676 26.7577C50.676 26.7577 50.676 26.7578 50.676 26.7578C50.6761 26.7578 50.676 26.7577 50.6759 26.7575C50.6757 26.7572 50.6753 26.7565 50.6747 26.7554C50.6735 26.7532 50.6714 26.7496 50.6684 26.7447C50.6626 26.7347 50.6534 26.7195 50.641 26.6997C50.6161 26.6601 50.5784 26.6029 50.5288 26.5347C50.4291 26.3978 50.2837 26.2205 50.0999 26.0554C49.7288 25.7221 49.2381 25.4679 48.6567 25.6217L48.5289 25.1383C49.3433 24.9228 50.0033 25.2965 50.434 25.6834C50.651 25.8783 50.8193 26.0842 50.933 26.2404C50.9901 26.3189 51.0341 26.3857 51.0642 26.4335C51.0793 26.4575 51.0909 26.4767 51.099 26.4904C51.103 26.4973 51.1062 26.5028 51.1085 26.5067C51.1096 26.5087 51.1105 26.5103 51.1112 26.5115C51.1116 26.5121 51.1118 26.5127 51.1121 26.5131C51.1122 26.5133 51.1123 26.5135 51.1124 26.5136C51.1124 26.5137 51.1125 26.5138 51.1125 26.5138C51.1126 26.5139 51.1126 26.514 50.8942 26.6357ZM48.6567 25.6217C48.2596 25.7267 47.9936 26.0312 47.8226 26.4904C47.6501 26.9535 47.5889 27.5411 47.5901 28.1345C47.5913 28.7241 47.6538 29.3003 47.7166 29.731C47.7479 29.9458 47.7791 30.1232 47.8024 30.2465C47.8141 30.3082 47.8237 30.3562 47.8304 30.3886C47.8338 30.4048 47.8364 30.4171 47.8381 30.4252C47.839 30.4292 47.8396 30.4322 47.84 30.4341C47.8402 30.4351 47.8404 30.4357 47.8405 30.4362C47.8405 30.4364 47.8405 30.4365 47.8406 30.4366C47.8406 30.4366 47.8406 30.4366 47.8406 30.4366C47.8406 30.4366 47.8406 30.4366 47.5965 30.4907C47.3524 30.5449 47.3524 30.5448 47.3524 30.5447C47.3524 30.5446 47.3524 30.5445 47.3523 30.5444C47.3523 30.5442 47.3522 30.5439 47.3521 30.5436C47.352 30.5429 47.3518 30.5419 47.3515 30.5407C47.351 30.5382 47.3502 30.5346 47.3492 30.53C47.3472 30.5207 47.3443 30.5072 47.3407 30.4897C47.3335 30.4548 47.3233 30.4039 47.3111 30.3393C47.2867 30.2102 47.2543 30.0258 47.2218 29.8031C47.157 29.3586 47.0914 28.757 47.0901 28.1355C47.0889 27.5177 47.151 26.8609 47.354 26.3159C47.5584 25.7669 47.9199 25.2994 48.5289 25.1383L48.6567 25.6217ZM47.5965 30.4907C47.3944 30.6378 47.3944 30.6379 47.3944 30.6379C47.3944 30.6379 47.3945 30.638 47.3945 30.638C47.3945 30.638 47.3945 30.638 47.3944 30.6379C47.3944 30.6379 47.3943 30.6377 47.394 30.6374C47.3936 30.6368 47.3929 30.6358 47.3918 30.6343C47.3896 30.6314 47.3862 30.6268 47.3815 30.6207C47.3722 30.6084 47.358 30.5899 47.3391 30.5661C47.3014 30.5184 47.2454 30.45 47.1738 30.3686C47.03 30.2053 46.8254 29.9927 46.5809 29.7923C46.0772 29.3795 45.4733 29.0741 44.8994 29.2259L44.7716 28.7426C45.5935 28.5251 46.3701 28.973 46.8979 29.4057C47.1692 29.628 47.3932 29.8613 47.549 30.0382C47.6271 30.1269 47.6887 30.2021 47.7311 30.2556C47.7523 30.2824 47.7687 30.3038 47.7801 30.3188C47.7858 30.3263 47.7902 30.3322 47.7933 30.3363C47.7948 30.3384 47.7961 30.3401 47.797 30.3413C47.7974 30.3419 47.7978 30.3424 47.798 30.3428C47.7982 30.343 47.7983 30.3431 47.7984 30.3433C47.7984 30.3433 47.7985 30.3434 47.7985 30.3435C47.7986 30.3435 47.7986 30.3436 47.5965 30.4907ZM44.8994 29.2259C44.1691 29.4192 43.8908 30.096 43.8149 30.8368C43.7778 31.1984 43.7931 31.5493 43.8183 31.8119C43.8308 31.9426 43.8457 32.05 43.8573 32.1241C43.8631 32.1612 43.8681 32.1898 43.8715 32.2088C43.8732 32.2183 43.8746 32.2254 43.8754 32.2299C43.8759 32.2322 43.8762 32.2338 43.8764 32.2347C43.8765 32.2352 43.8765 32.2355 43.8765 32.2356C43.8766 32.2357 43.8766 32.2357 43.8766 32.2357C43.8766 32.2357 43.8766 32.2357 43.8766 32.2357C43.8765 32.2356 43.8765 32.2355 43.6315 32.2854C43.3866 32.3352 43.3865 32.3351 43.3865 32.335C43.3865 32.335 43.3865 32.3348 43.3865 32.3348C43.3864 32.3346 43.3864 32.3343 43.3863 32.3341C43.3862 32.3335 43.3861 32.3328 43.3859 32.3319C43.3855 32.3301 43.3851 32.3277 43.3845 32.3245C43.3833 32.3183 43.3816 32.3094 43.3795 32.2981C43.3754 32.2754 43.3698 32.2428 43.3633 32.2015C43.3504 32.119 43.3342 32.0016 43.3205 31.8596C43.2934 31.5768 43.276 31.1908 43.3175 30.7859C43.3986 29.9939 43.7223 29.0201 44.7716 28.7426L44.8994 29.2259ZM43.8799 32.2569L45.1226 43.1127L44.6259 43.1696L43.3832 32.3138L43.8799 32.2569ZM44.8743 43.1412C45.124 43.1304 45.124 43.1304 45.124 43.1304C45.124 43.1304 45.124 43.1304 45.124 43.1304C45.124 43.1305 45.124 43.1305 45.124 43.1306C45.1241 43.1309 45.1241 43.1312 45.1241 43.1317C45.1241 43.1326 45.1242 43.1341 45.1243 43.1361C45.1245 43.14 45.1247 43.146 45.1251 43.1538C45.1259 43.1695 45.127 43.1929 45.1285 43.2233C45.1317 43.284 45.1365 43.3727 45.1433 43.4838C45.1569 43.706 45.1784 44.0177 45.2098 44.3751C45.2728 45.0923 45.3752 45.9843 45.5321 46.7063L45.0436 46.8125C44.8797 46.059 44.7753 45.1418 44.7117 44.4188C44.6798 44.0561 44.6581 43.7399 44.6442 43.5143C44.6373 43.4015 44.6324 43.3112 44.6292 43.249C44.6276 43.2179 44.6264 43.1938 44.6257 43.1774C44.6253 43.1692 44.625 43.1629 44.6248 43.1587C44.6247 43.1565 44.6246 43.1549 44.6246 43.1538C44.6246 43.1532 44.6245 43.1528 44.6245 43.1525C44.6245 43.1524 44.6245 43.1522 44.6245 43.1522C44.6245 43.1521 44.6245 43.1521 44.6245 43.1521C44.6245 43.152 44.6245 43.152 44.8743 43.1412ZM45.5321 46.7063C45.7532 47.7233 46.3023 48.4164 46.932 49.1511C47.557 49.8804 48.2655 50.6536 48.6973 51.7963L48.2296 51.9731C47.8345 50.9274 47.1906 50.2211 46.5523 49.4764C45.9187 48.7372 45.2934 47.9618 45.0436 46.8125L45.5321 46.7063ZM48.6973 51.7963C49.1083 52.8839 49.2599 54.5591 49.3127 55.9343C49.3393 56.6276 49.341 57.2547 49.3361 57.7084C49.3337 57.9354 49.3296 58.1192 49.326 58.2464C49.3243 58.3101 49.3227 58.3596 49.3215 58.3934C49.3209 58.4102 49.3205 58.4231 49.3201 58.4319C49.32 58.4363 49.3198 58.4397 49.3197 58.4419C49.3197 58.4431 49.3196 58.4439 49.3196 58.4446C49.3196 58.4449 49.3196 58.4451 49.3196 58.4453C49.3196 58.4453 49.3196 58.4454 49.3196 58.4455C49.3196 58.4455 49.3196 58.4456 49.0698 58.4353C48.82 58.425 48.82 58.425 48.82 58.425C48.82 58.425 48.82 58.4249 48.82 58.4249C48.82 58.4248 48.82 58.4246 48.82 58.4244C48.8201 58.4239 48.8201 58.4231 48.8201 58.4221C48.8202 58.4201 48.8203 58.417 48.8205 58.4129C48.8208 58.4047 48.8212 58.3923 48.8218 58.376C48.8229 58.3434 48.8245 58.295 48.8262 58.2326C48.8297 58.1078 48.8337 57.9269 48.8362 57.703C48.841 57.2551 48.8393 56.6365 48.8131 55.9535C48.7602 54.576 48.6086 52.9759 48.2296 51.9731L48.6973 51.7963ZM49.0791 58.1854L60.1996 58.5987L60.181 59.0984L49.0605 58.6851L49.0791 58.1854ZM58.3387 27.305C58.0889 27.3146 58.0889 27.3146 58.0889 27.3147C58.0889 27.3147 58.0889 27.3147 58.0889 27.3147C58.0889 27.3147 58.0889 27.3146 58.0889 27.3145C58.0889 27.3143 58.0889 27.314 58.0889 27.3135C58.0888 27.3125 58.0888 27.3108 58.0887 27.3085C58.0885 27.3039 58.0881 27.2967 58.0876 27.2873C58.0866 27.2683 58.0849 27.2399 58.0823 27.2033C58.0771 27.1302 58.0683 27.0247 58.0538 26.897C58.0247 26.6409 57.9732 26.2994 57.8837 25.9527C57.7937 25.6035 57.6687 25.263 57.4993 25.0001C57.33 24.7375 57.1336 24.5774 56.9048 24.5325L57.0011 24.0418C57.4122 24.1225 57.709 24.4025 57.9196 24.7292C58.13 25.0557 58.2715 25.454 58.3679 25.8278C58.465 26.2042 58.5199 26.5701 58.5506 26.8406C58.566 26.9762 58.5755 27.0888 58.5811 27.168C58.5839 27.2076 58.5857 27.2389 58.5869 27.2605C58.5875 27.2714 58.5879 27.2798 58.5881 27.2857C58.5883 27.2886 58.5884 27.2909 58.5884 27.2925C58.5885 27.2934 58.5885 27.294 58.5885 27.2945C58.5885 27.2948 58.5885 27.295 58.5886 27.2951C58.5886 27.2952 58.5886 27.2953 58.5886 27.2953C58.5886 27.2954 58.5886 27.2955 58.3387 27.305ZM56.9048 24.5325C56.4987 24.4528 56.1964 24.509 55.9677 24.6225C55.7356 24.7377 55.5596 24.9218 55.4265 25.1274C55.2932 25.3334 55.2084 25.5527 55.157 25.7235C55.1315 25.8082 55.1147 25.8792 55.1044 25.9282C55.0993 25.9526 55.0958 25.9714 55.0936 25.9836C55.0926 25.9897 55.0919 25.9941 55.0915 25.9967C55.0913 25.998 55.0911 25.9989 55.0911 25.9992C55.091 25.9994 55.091 25.9995 55.091 25.9994C55.091 25.9994 55.091 25.9994 55.0911 25.9993C55.0911 25.9992 55.0911 25.9992 55.0911 25.9991C55.0911 25.999 55.0911 25.9989 54.8436 25.9634C54.5962 25.9279 54.5962 25.9278 54.5962 25.9277C54.5962 25.9277 54.5962 25.9275 54.5962 25.9274C54.5963 25.9272 54.5963 25.927 54.5964 25.9267C54.5964 25.9262 54.5965 25.9255 54.5967 25.9247C54.5969 25.9231 54.5972 25.9211 54.5976 25.9185C54.5984 25.9135 54.5995 25.9065 54.6011 25.8978C54.6041 25.8804 54.6087 25.8559 54.6151 25.8254C54.6278 25.7646 54.648 25.6796 54.6782 25.5793C54.7383 25.38 54.84 25.1134 55.0068 24.8557C55.1738 24.5976 55.4115 24.3404 55.7454 24.1747C56.0826 24.0073 56.4983 23.9432 57.0011 24.0418L56.9048 24.5325ZM59.5024 52.7075C59.5043 52.5673 59.5426 52.3935 59.5989 52.2039C59.6565 52.0095 59.7391 51.7792 59.8414 51.519C60.046 50.9985 60.3354 50.3434 60.6785 49.5902C61.3667 48.0795 62.2738 46.168 63.1742 44.1042L63.6325 44.3041C62.7301 46.3724 61.8173 48.2966 61.1335 49.7975C60.7907 50.55 60.5061 51.1947 60.3067 51.7019C60.207 51.9555 60.1302 52.171 60.0782 52.3461C60.0248 52.5261 60.0033 52.6456 60.0024 52.7142L59.5024 52.7075ZM63.1742 44.1042C64.2466 41.6463 65.2264 39.3036 65.9872 37.4853C66.7433 35.6781 67.2918 34.3666 67.4938 33.9965L67.9327 34.236C67.747 34.5763 67.2138 35.849 66.4485 37.6782C65.6878 39.4963 64.7066 41.8423 63.6325 44.3041L63.1742 44.1042Z" fill="#B98864"/>
<line x1="0.15" y1="-0.15" x2="7.96633" y2="-0.15" transform="matrix(0.0434936 0.999054 0.999994 0.00351591 47.6328 30.5105)" stroke="#986949" stroke-width="0.3" stroke-linecap="round"/>
<line x1="0.15" y1="-0.15" x2="7.96633" y2="-0.15" transform="matrix(0.0434936 0.999054 0.999994 0.00351591 51.0225 26.7056)" stroke="#986949" stroke-width="0.3" stroke-linecap="round"/>
<line x1="0.15" y1="-0.15" x2="7.96633" y2="-0.15" transform="matrix(0.0434936 0.999054 0.999994 0.00351591 55.1182 25.5476)" stroke="#986949" stroke-width="0.3" stroke-linecap="round"/>
<rect x="47" y="54" width="14" height="22" fill="#FB5B72"/>
<path d="M48 59C47.9755 60.8294 49.1903 65.8486 49.1903 65.8486L38.0698 65.4353C38.0698 65.4353 38.2534 60.9751 37.4635 58.8847C36.6365 56.6963 34.7588 55.9257 34.2879 53.7594C33.967 52.2838 33.8743 50.1412 33.8743 50.1412L32.6315 39.2854C32.6315 39.2854 32.0559 36.4551 33.8355 35.9842C35.2313 35.615 36.5965 37.4907 36.5965 37.4907C36.5965 37.4907 35.5807 32.9123 37.5928 32.38C38.9886 32.0107 39.8942 33.6357 39.8942 33.6357C39.8942 33.6357 39.7201 30.0901 41.3353 29.8986C43.8892 29.5957 43.8436 32.9634 43.8436 32.9634C43.8436 32.9634 44.1352 30.9305 45.9529 31.2872C47.2329 31.5383 47.3387 34.305 47.3387 34.305C47.3387 34.305 47.5 47 48.7524 46.9504C50.0048 46.9008 53.2543 39.7944 54.19 39.1741C55.1256 38.5537 57.4264 39.8091 56.7132 41.1162C56.3256 41.8267 54.5498 46.2845 52.4033 51.2042C50.6006 55.3362 48.0112 58.1649 48 59Z" fill="#F9CFAB"/>
<path d="M49.1903 65.8486L49.4333 65.7898C49.4517 65.8658 49.4334 65.9462 49.3839 66.0068C49.3343 66.0674 49.2593 66.1013 49.181 66.0984L49.1903 65.8486ZM48 59L48.25 59.0033L48.25 59.0034L48 59ZM47.3387 34.305L47.5886 34.2955L47.5887 34.3018L47.3387 34.305ZM43.8436 32.9634L44.0911 32.9989C44.0724 33.1294 43.9556 33.223 43.8242 33.2127C43.6927 33.2024 43.5919 33.0919 43.5937 32.9601L43.8436 32.9634ZM41.3353 29.8986L41.3059 29.6503L41.3059 29.6503L41.3353 29.8986ZM39.8942 33.6357L40.1439 33.6235C40.1496 33.7395 40.0747 33.8441 39.963 33.8761C39.8514 33.908 39.7324 33.8589 39.6759 33.7574L39.8942 33.6357ZM37.5928 32.38L37.6567 32.6217L37.6567 32.6217L37.5928 32.38ZM36.5965 37.4907L36.8406 37.4366C36.8662 37.5522 36.8072 37.6699 36.6993 37.7186C36.5913 37.7673 36.464 37.7336 36.3944 37.6378L36.5965 37.4907ZM33.8355 35.9842L33.8994 36.2259L33.8994 36.2259L33.8355 35.9842ZM32.6315 39.2854L32.8765 39.2355L32.8787 39.2462L32.8799 39.2569L32.6315 39.2854ZM33.8743 50.1412L34.1226 50.1127L34.1236 50.1215L34.124 50.1304L33.8743 50.1412ZM34.2879 53.7594L34.5321 53.7063L34.5321 53.7063L34.2879 53.7594ZM37.4635 58.8847L37.6973 58.7963L37.4635 58.8847ZM38.0698 65.4353L38.0605 65.6851C37.9941 65.6826 37.9314 65.6538 37.8862 65.605C37.8411 65.5562 37.8173 65.4914 37.82 65.425L38.0698 65.4353ZM45.9529 31.2872L46.0011 31.0418L46.0011 31.0418L45.9529 31.2872ZM52.4033 51.2042L52.1742 51.1042L52.1742 51.1042L52.4033 51.2042ZM49.1903 65.8486C48.9473 65.9074 48.9473 65.9073 48.9473 65.9073C48.9473 65.9073 48.9473 65.9072 48.9473 65.9071C48.9472 65.9069 48.9472 65.9067 48.9471 65.9064C48.9469 65.9057 48.9467 65.9048 48.9464 65.9036C48.9458 65.9011 48.9449 65.8974 48.9438 65.8926C48.9414 65.8829 48.938 65.8686 48.9335 65.8499C48.9246 65.8124 48.9115 65.7573 48.8948 65.6866C48.8615 65.5453 48.814 65.3414 48.7571 65.0912C48.6433 64.5907 48.4918 63.9042 48.3409 63.16C48.0416 61.6829 47.7373 59.9432 47.75 58.9966L48.25 59.0034C48.2381 59.8862 48.529 61.5708 48.831 63.0607C48.9808 63.7999 49.1314 64.4825 49.2446 64.9803C49.3012 65.2292 49.3485 65.4317 49.3815 65.572C49.398 65.6421 49.411 65.6967 49.4198 65.7336C49.4242 65.7521 49.4276 65.7662 49.4299 65.7756C49.431 65.7804 49.4319 65.7839 49.4325 65.7863C49.4327 65.7875 49.4329 65.7883 49.4331 65.7889C49.4332 65.7892 49.4332 65.7894 49.4332 65.7896C49.4333 65.7896 49.4333 65.7897 49.4333 65.7897C49.4333 65.7897 49.4333 65.7898 49.1903 65.8486ZM56.4938 40.9965C56.6316 40.7439 56.6241 40.5027 56.5231 40.2758C56.4179 40.0397 56.2067 39.8129 55.9318 39.6307C55.6584 39.4495 55.3394 39.3242 55.0418 39.2792C54.7401 39.2335 54.4915 39.2741 54.3281 39.3824L54.0518 38.9657C54.3563 38.7638 54.7461 38.7287 55.1167 38.7848C55.4914 38.8415 55.8785 38.9955 56.208 39.214C56.5362 39.4315 56.8249 39.7248 56.9798 40.0723C57.1388 40.4291 57.1515 40.835 56.9327 41.236L56.4938 40.9965ZM54.3281 39.3824C54.2548 39.4311 54.1256 39.5727 53.9427 39.8294C53.7673 40.0754 53.5626 40.3977 53.3357 40.7732C52.8809 41.5257 52.3522 42.4664 51.8059 43.4023C51.2629 44.3325 50.7045 45.2545 50.2011 45.9484C49.9499 46.2948 49.7062 46.593 49.4795 46.8086C49.3661 46.9165 49.2513 47.0091 49.1369 47.0769C49.0238 47.1437 48.8968 47.1949 48.7623 47.2002L48.7425 46.7006C48.7645 46.6997 48.8096 46.6895 48.8822 46.6465C48.9534 46.6044 49.0378 46.5387 49.1349 46.4463C49.3293 46.2614 49.5523 45.9914 49.7964 45.6548C50.2838 44.983 50.8311 44.0803 51.374 43.1502C51.9136 42.2258 52.451 41.2704 52.9078 40.5146C53.1367 40.1357 53.3491 39.8007 53.5355 39.5392C53.7142 39.2883 53.8913 39.0722 54.0518 38.9657L54.3281 39.3824ZM48.7623 47.2002C48.5662 47.208 48.4237 47.0873 48.3325 46.9697C48.2393 46.8494 48.1627 46.6875 48.0971 46.5066C47.9646 46.1416 47.8526 45.6311 47.7564 45.0354C47.5631 43.8397 47.4249 42.2475 47.3264 40.6618C47.2277 39.0743 47.1683 37.486 47.1336 36.2951C47.1163 35.6995 47.105 35.203 47.0982 34.8554C47.0947 34.6815 47.0924 34.5448 47.0909 34.4516C47.0902 34.4049 47.0896 34.3692 47.0893 34.345C47.0891 34.3329 47.089 34.3238 47.0889 34.3176C47.0889 34.3145 47.0888 34.3122 47.0888 34.3106C47.0888 34.3098 47.0888 34.3092 47.0888 34.3088C47.0888 34.3086 47.0888 34.3085 47.0888 34.3084C47.0888 34.3083 47.0888 34.3082 47.3387 34.305C47.5887 34.3018 47.5887 34.3019 47.5887 34.302C47.5887 34.3021 47.5887 34.3022 47.5887 34.3024C47.5887 34.3027 47.5887 34.3033 47.5888 34.3041C47.5888 34.3056 47.5888 34.3078 47.5888 34.3109C47.5889 34.3169 47.5891 34.3259 47.5892 34.3379C47.5896 34.3617 47.5901 34.3972 47.5908 34.4436C47.5923 34.5363 47.5947 34.6723 47.5981 34.8455C47.6049 35.1918 47.6161 35.6868 47.6334 36.2806C47.668 37.4684 47.7272 39.0508 47.8254 40.6308C47.9238 42.2127 48.0607 43.785 48.2499 44.9556C48.3449 45.5431 48.451 46.0162 48.5671 46.336C48.6257 46.4974 48.681 46.6032 48.7277 46.6634C48.7765 46.7263 48.782 46.699 48.7425 46.7006L48.7623 47.2002ZM43.8436 32.9634C43.5937 32.9601 43.5937 32.9601 43.5937 32.9602C43.5937 32.9602 43.5937 32.9603 43.5937 32.9603C43.5937 32.9603 43.5937 32.9603 43.5937 32.9602C43.5937 32.96 43.5937 32.9597 43.5937 32.9591C43.5937 32.958 43.5937 32.9561 43.5937 32.9535C43.5937 32.9482 43.5937 32.9398 43.5935 32.9286C43.5933 32.9063 43.5926 32.8727 43.5908 32.8295C43.5873 32.7432 43.5795 32.6189 43.5625 32.4704C43.5283 32.1718 43.4576 31.7826 43.3137 31.4068C43.1694 31.0298 42.9579 30.6831 42.6522 30.4478C42.3533 30.2178 41.9439 30.0782 41.3648 30.1468L41.3059 29.6503C42.0038 29.5676 42.5463 29.7354 42.9572 30.0516C43.3612 30.3626 43.6172 30.801 43.7807 31.2281C43.9446 31.6564 44.0222 32.0902 44.0592 32.4135C44.0778 32.576 44.0865 32.7125 44.0904 32.8091C44.0924 32.8575 44.0932 32.8959 44.0935 32.9228C44.0937 32.9362 44.0937 32.9467 44.0937 32.9541C44.0937 32.9578 44.0937 32.9608 44.0937 32.9629C44.0936 32.9639 44.0936 32.9648 44.0936 32.9655C44.0936 32.9658 44.0936 32.9661 44.0936 32.9663C44.0936 32.9664 44.0936 32.9665 44.0936 32.9666C44.0936 32.9667 44.0936 32.9668 43.8436 32.9634ZM41.3648 30.1468C41.0648 30.1824 40.8312 30.3715 40.6444 30.6898C40.4555 31.0118 40.3324 31.4392 40.2554 31.8818C40.179 32.321 40.1509 32.7572 40.1422 33.0854C40.1378 33.249 40.1383 33.3846 40.1399 33.4789C40.1406 33.526 40.1417 33.5627 40.1425 33.5874C40.1429 33.5997 40.1433 33.609 40.1436 33.6151C40.1437 33.6182 40.1438 33.6204 40.1438 33.6218C40.1439 33.6225 40.1439 33.623 40.1439 33.6233C40.1439 33.6234 40.1439 33.6235 40.1439 33.6235C40.1439 33.6235 40.1439 33.6235 40.1439 33.6235C40.1439 33.6235 40.1439 33.6235 39.8942 33.6357C39.6445 33.648 39.6445 33.6479 39.6445 33.6478C39.6445 33.6478 39.6445 33.6477 39.6445 33.6476C39.6445 33.6474 39.6445 33.6472 39.6445 33.6469C39.6444 33.6463 39.6444 33.6455 39.6444 33.6445C39.6443 33.6425 39.6441 33.6396 39.644 33.636C39.6437 33.6286 39.6433 33.618 39.6428 33.6043C39.6419 33.5769 39.6408 33.5373 39.6399 33.4871C39.6383 33.3868 39.6378 33.2439 39.6424 33.0721C39.6515 32.7295 39.6808 32.2673 39.7628 31.7961C39.8442 31.3284 39.9804 30.8335 40.2131 30.4368C40.448 30.0365 40.7983 29.7105 41.3059 29.6503L41.3648 30.1468ZM39.8942 33.6357C39.6759 33.7574 39.6759 33.7575 39.6759 33.7576C39.6759 33.7576 39.676 33.7576 39.676 33.7577C39.676 33.7577 39.676 33.7578 39.676 33.7578C39.6761 33.7578 39.676 33.7577 39.6759 33.7575C39.6757 33.7572 39.6753 33.7565 39.6747 33.7554C39.6735 33.7532 39.6714 33.7496 39.6684 33.7447C39.6626 33.7347 39.6534 33.7195 39.641 33.6997C39.6161 33.6601 39.5784 33.6029 39.5288 33.5347C39.4291 33.3978 39.2837 33.2205 39.0999 33.0554C38.7288 32.7221 38.2381 32.4679 37.6567 32.6217L37.5289 32.1383C38.3433 31.9228 39.0033 32.2965 39.434 32.6834C39.651 32.8783 39.8193 33.0842 39.933 33.2404C39.9901 33.3189 40.0341 33.3857 40.0642 33.4335C40.0793 33.4575 40.0909 33.4767 40.099 33.4904C40.103 33.4973 40.1062 33.5028 40.1085 33.5067C40.1096 33.5087 40.1105 33.5103 40.1112 33.5115C40.1116 33.5121 40.1118 33.5127 40.1121 33.5131C40.1122 33.5133 40.1123 33.5135 40.1124 33.5136C40.1124 33.5137 40.1125 33.5138 40.1125 33.5138C40.1126 33.5139 40.1126 33.514 39.8942 33.6357ZM37.6567 32.6217C37.2596 32.7267 36.9936 33.0312 36.8226 33.4904C36.6501 33.9535 36.5889 34.5411 36.5901 35.1345C36.5913 35.7241 36.6538 36.3003 36.7166 36.731C36.7479 36.9458 36.7791 37.1232 36.8024 37.2465C36.8141 37.3082 36.8237 37.3562 36.8304 37.3886C36.8338 37.4048 36.8364 37.4171 36.8381 37.4252C36.839 37.4292 36.8396 37.4322 36.84 37.4341C36.8402 37.4351 36.8404 37.4357 36.8405 37.4362C36.8405 37.4364 36.8405 37.4365 36.8406 37.4366C36.8406 37.4366 36.8406 37.4366 36.8406 37.4366C36.8406 37.4366 36.8406 37.4366 36.5965 37.4907C36.3524 37.5449 36.3524 37.5448 36.3524 37.5447C36.3524 37.5446 36.3524 37.5445 36.3523 37.5444C36.3523 37.5442 36.3522 37.5439 36.3521 37.5436C36.352 37.5429 36.3518 37.5419 36.3515 37.5407C36.351 37.5382 36.3502 37.5346 36.3492 37.53C36.3472 37.5207 36.3443 37.5072 36.3407 37.4897C36.3335 37.4548 36.3233 37.4039 36.3111 37.3393C36.2867 37.2102 36.2543 37.0258 36.2218 36.8031C36.157 36.3586 36.0914 35.757 36.0901 35.1355C36.0889 34.5177 36.151 33.8609 36.354 33.3159C36.5584 32.7669 36.9199 32.2994 37.5289 32.1383L37.6567 32.6217ZM36.5965 37.4907C36.3944 37.6378 36.3944 37.6379 36.3944 37.6379C36.3944 37.6379 36.3945 37.638 36.3945 37.638C36.3945 37.638 36.3945 37.638 36.3944 37.6379C36.3944 37.6379 36.3943 37.6377 36.394 37.6374C36.3936 37.6368 36.3929 37.6358 36.3918 37.6343C36.3896 37.6314 36.3862 37.6268 36.3815 37.6207C36.3722 37.6084 36.358 37.5899 36.3391 37.5661C36.3014 37.5184 36.2454 37.45 36.1738 37.3686C36.03 37.2053 35.8254 36.9927 35.5809 36.7923C35.0772 36.3795 34.4733 36.0741 33.8994 36.2259L33.7716 35.7426C34.5935 35.5251 35.3701 35.973 35.8979 36.4057C36.1692 36.628 36.3932 36.8613 36.549 37.0382C36.6271 37.1269 36.6887 37.2021 36.7311 37.2556C36.7523 37.2824 36.7687 37.3038 36.7801 37.3188C36.7858 37.3263 36.7902 37.3322 36.7933 37.3363C36.7948 37.3384 36.7961 37.3401 36.797 37.3413C36.7974 37.3419 36.7978 37.3424 36.798 37.3428C36.7982 37.343 36.7983 37.3431 36.7984 37.3433C36.7984 37.3433 36.7985 37.3434 36.7985 37.3435C36.7986 37.3435 36.7986 37.3436 36.5965 37.4907ZM33.8994 36.2259C33.1691 36.4192 32.8908 37.096 32.8149 37.8368C32.7778 38.1984 32.7931 38.5493 32.8183 38.8119C32.8308 38.9426 32.8457 39.05 32.8573 39.1241C32.8631 39.1612 32.8681 39.1898 32.8715 39.2088C32.8732 39.2183 32.8746 39.2254 32.8754 39.2299C32.8759 39.2322 32.8762 39.2338 32.8764 39.2347C32.8765 39.2352 32.8765 39.2355 32.8765 39.2356C32.8766 39.2357 32.8766 39.2357 32.8766 39.2357C32.8766 39.2357 32.8766 39.2357 32.8766 39.2357C32.8765 39.2356 32.8765 39.2355 32.6315 39.2854C32.3866 39.3352 32.3865 39.3351 32.3865 39.335C32.3865 39.335 32.3865 39.3348 32.3865 39.3348C32.3864 39.3346 32.3864 39.3343 32.3863 39.3341C32.3862 39.3335 32.3861 39.3328 32.3859 39.3319C32.3855 39.3301 32.3851 39.3277 32.3845 39.3245C32.3833 39.3183 32.3816 39.3094 32.3795 39.2981C32.3754 39.2754 32.3698 39.2428 32.3633 39.2015C32.3504 39.119 32.3342 39.0016 32.3205 38.8596C32.2934 38.5768 32.276 38.1908 32.3175 37.7859C32.3986 36.9939 32.7223 36.0201 33.7716 35.7426L33.8994 36.2259ZM32.8799 39.2569L34.1226 50.1127L33.6259 50.1696L32.3832 39.3138L32.8799 39.2569ZM33.8743 50.1412C34.124 50.1304 34.124 50.1304 34.124 50.1304C34.124 50.1304 34.124 50.1304 34.124 50.1304C34.124 50.1305 34.124 50.1305 34.124 50.1306C34.1241 50.1309 34.1241 50.1312 34.1241 50.1317C34.1241 50.1326 34.1242 50.1341 34.1243 50.1361C34.1245 50.14 34.1247 50.146 34.1251 50.1538C34.1259 50.1695 34.127 50.1929 34.1285 50.2233C34.1317 50.284 34.1365 50.3727 34.1433 50.4838C34.1569 50.706 34.1784 51.0177 34.2098 51.3751C34.2728 52.0923 34.3752 52.9843 34.5321 53.7063L34.0436 53.8125C33.8797 53.059 33.7753 52.1418 33.7117 51.4188C33.6798 51.0561 33.6581 50.7399 33.6442 50.5143C33.6373 50.4015 33.6324 50.3112 33.6292 50.249C33.6276 50.2179 33.6264 50.1938 33.6257 50.1774C33.6253 50.1692 33.625 50.1629 33.6248 50.1587C33.6247 50.1565 33.6246 50.1549 33.6246 50.1538C33.6246 50.1532 33.6245 50.1528 33.6245 50.1525C33.6245 50.1524 33.6245 50.1522 33.6245 50.1522C33.6245 50.1521 33.6245 50.1521 33.6245 50.1521C33.6245 50.152 33.6245 50.152 33.8743 50.1412ZM34.5321 53.7063C34.7532 54.7233 35.3023 55.4164 35.932 56.1511C36.557 56.8804 37.2655 57.6536 37.6973 58.7963L37.2296 58.9731C36.8345 57.9274 36.1906 57.2211 35.5523 56.4764C34.9187 55.7372 34.2934 54.9618 34.0436 53.8125L34.5321 53.7063ZM37.6973 58.7963C38.1083 59.8839 38.2599 61.5591 38.3127 62.9343C38.3393 63.6276 38.341 64.2547 38.3361 64.7084C38.3337 64.9354 38.3296 65.1192 38.326 65.2464C38.3243 65.3101 38.3227 65.3596 38.3215 65.3934C38.3209 65.4102 38.3205 65.4231 38.3201 65.4319C38.32 65.4363 38.3198 65.4397 38.3197 65.4419C38.3197 65.4431 38.3196 65.4439 38.3196 65.4446C38.3196 65.4449 38.3196 65.4451 38.3196 65.4453C38.3196 65.4453 38.3196 65.4454 38.3196 65.4455C38.3196 65.4455 38.3196 65.4456 38.0698 65.4353C37.82 65.425 37.82 65.425 37.82 65.425C37.82 65.425 37.82 65.4249 37.82 65.4249C37.82 65.4248 37.82 65.4246 37.82 65.4244C37.8201 65.4239 37.8201 65.4231 37.8201 65.4221C37.8202 65.4201 37.8203 65.417 37.8205 65.4129C37.8208 65.4047 37.8212 65.3923 37.8218 65.376C37.8229 65.3434 37.8245 65.295 37.8262 65.2326C37.8297 65.1078 37.8337 64.9269 37.8362 64.703C37.841 64.2551 37.8393 63.6365 37.8131 62.9535C37.7602 61.576 37.6086 59.9759 37.2296 58.9731L37.6973 58.7963ZM38.0791 65.1854L49.1996 65.5987L49.181 66.0984L38.0605 65.6851L38.0791 65.1854ZM47.3387 34.305C47.0889 34.3146 47.0889 34.3146 47.0889 34.3147C47.0889 34.3147 47.0889 34.3147 47.0889 34.3147C47.0889 34.3147 47.0889 34.3146 47.0889 34.3145C47.0889 34.3143 47.0889 34.314 47.0889 34.3135C47.0888 34.3125 47.0888 34.3108 47.0887 34.3085C47.0885 34.3039 47.0881 34.2967 47.0876 34.2873C47.0866 34.2683 47.0849 34.2399 47.0823 34.2033C47.0771 34.1302 47.0683 34.0247 47.0538 33.897C47.0247 33.6409 46.9732 33.2994 46.8837 32.9527C46.7937 32.6035 46.6687 32.263 46.4993 32.0001C46.33 31.7375 46.1336 31.5774 45.9048 31.5325L46.0011 31.0418C46.4122 31.1225 46.709 31.4025 46.9196 31.7292C47.13 32.0557 47.2715 32.454 47.3679 32.8278C47.465 33.2042 47.5199 33.5701 47.5506 33.8406C47.566 33.9762 47.5755 34.0888 47.5811 34.168C47.5839 34.2076 47.5857 34.2389 47.5869 34.2605C47.5875 34.2714 47.5879 34.2798 47.5881 34.2857C47.5883 34.2886 47.5884 34.2909 47.5884 34.2925C47.5885 34.2934 47.5885 34.294 47.5885 34.2945C47.5885 34.2948 47.5885 34.295 47.5886 34.2951C47.5886 34.2952 47.5886 34.2953 47.5886 34.2953C47.5886 34.2954 47.5886 34.2955 47.3387 34.305ZM45.9048 31.5325C45.4987 31.4528 45.1964 31.509 44.9677 31.6225C44.7356 31.7377 44.5596 31.9218 44.4265 32.1274C44.2932 32.3334 44.2084 32.5527 44.157 32.7235C44.1315 32.8082 44.1147 32.8792 44.1044 32.9282C44.0993 32.9526 44.0958 32.9714 44.0936 32.9836C44.0926 32.9897 44.0919 32.9941 44.0915 32.9967C44.0913 32.998 44.0911 32.9989 44.0911 32.9992C44.091 32.9994 44.091 32.9995 44.091 32.9994C44.091 32.9994 44.091 32.9994 44.0911 32.9993C44.0911 32.9992 44.0911 32.9992 44.0911 32.9991C44.0911 32.999 44.0911 32.9989 43.8436 32.9634C43.5962 32.9279 43.5962 32.9278 43.5962 32.9277C43.5962 32.9277 43.5962 32.9275 43.5962 32.9274C43.5963 32.9272 43.5963 32.927 43.5964 32.9267C43.5964 32.9262 43.5965 32.9255 43.5967 32.9247C43.5969 32.9231 43.5972 32.9211 43.5976 32.9185C43.5984 32.9135 43.5995 32.9065 43.6011 32.8978C43.6041 32.8804 43.6087 32.8559 43.6151 32.8254C43.6278 32.7646 43.648 32.6796 43.6782 32.5793C43.7383 32.38 43.84 32.1134 44.0068 31.8557C44.1738 31.5976 44.4115 31.3404 44.7454 31.1747C45.0826 31.0073 45.4983 30.9432 46.0011 31.0418L45.9048 31.5325ZM47.75 58.9967C47.7521 58.8384 47.8123 58.6637 47.891 58.491C47.9725 58.3123 48.0876 58.1073 48.2257 57.8806C48.5013 57.4284 48.8874 56.8598 49.321 56.201C50.193 54.876 51.2816 53.1502 52.1742 51.1042L52.6325 51.3041C51.7224 53.3902 50.6148 55.1447 49.7387 56.4759C49.2982 57.1451 48.9222 57.6985 48.6527 58.1407C48.5184 58.3612 48.4152 58.5465 48.3459 58.6985C48.2739 58.8564 48.2507 58.9529 48.25 59.0033L47.75 58.9967ZM52.1742 51.1042C53.2466 48.6463 54.2264 46.3036 54.9872 44.4853C55.7433 42.6781 56.2918 41.3666 56.4938 40.9965L56.9327 41.236C56.747 41.5763 56.2138 42.849 55.4485 44.6782C54.6878 46.4963 53.7066 48.8423 52.6325 51.3041L52.1742 51.1042Z" fill="#F9CFAB"/>
<line x1="0.15" y1="-0.15" x2="7.96633" y2="-0.15" transform="matrix(0.0434936 0.999054 0.999994 0.00351591 36.6328 37.5105)" stroke="#CFA07E" stroke-width="0.3" stroke-linecap="round"/>
<line x1="0.15" y1="-0.15" x2="7.96633" y2="-0.15" transform="matrix(0.0434936 0.999054 0.999994 0.00351591 40.0225 33.7056)" stroke="#CFA07E" stroke-width="0.3" stroke-linecap="round"/>
<line x1="0.15" y1="-0.15" x2="7.96633" y2="-0.15" transform="matrix(0.0434936 0.999054 0.999994 0.00351591 44.1182 32.5476)" stroke="#CFA07E" stroke-width="0.3" stroke-linecap="round"/>
<rect x="36" y="61" width="14" height="15" fill="#C281ED"/>
<line x1="41.51" y1="25.07" x2="38.07" y2="22.49" stroke="#C281ED" stroke-width="0.7" stroke-linecap="round"/>
<line x1="63.1061" y1="24.2118" x2="66.7279" y2="21.8939" stroke="#C281ED" stroke-width="0.7" stroke-linecap="round"/>
<line x1="43.4285" y1="19.9805" x2="40.9196" y2="16.4884" stroke="#C281ED" stroke-width="0.7" stroke-linecap="round"/>
<line x1="59.9673" y1="19.2678" x2="62.8" y2="16.0328" stroke="#C281ED" stroke-width="0.7" stroke-linecap="round"/>
<line x1="47.4186" y1="16.6444" x2="46.7125" y2="12.4027" stroke="#C281ED" stroke-width="0.7" stroke-linecap="round"/>
<line x1="54.739" y1="16.1798" x2="56.4075" y2="12.2167" stroke="#C281ED" stroke-width="0.7" stroke-linecap="round"/>
</svg>
