<svg width="96" height="96" viewBox="0 0 96 96" fill="none" xmlns="http://www.w3.org/2000/svg">
<rect width="96" height="96" rx="48" fill="white"/>
<rect x="44.9576" y="29.8619" width="3.37574" height="6.99472" rx="1.68787" fill="#C4C4C4" stroke="black" stroke-width="0.8" stroke-linejoin="round"/>
<rect x="41.6178" y="30.6971" width="2.81898" height="6.15957" rx="1.40949" fill="#FBE1CC" stroke="#F9CFAB" stroke-width="0.8" stroke-linejoin="round"/>
<rect x="44.9576" y="29.8619" width="3.37574" height="6.99472" rx="1.68787" fill="#FBE1CC" stroke="#F9CFAB" stroke-width="0.8" stroke-linejoin="round"/>
<path d="M43.7234 46.4433C43.8088 47.9744 43.7234 53.2794 43.7234 53.2794L52.9093 53.2793C52.9093 53.2793 52.4949 47.0228 52.9093 45.7474C53.3431 44.4121 54.5353 43.7292 54.7583 42.4068C54.9102 41.506 54.7583 36.004 54.7583 36.004L49.3464 34.7513L43.4443 34.7513C43.4443 34.7513 40.6499 34.4319 40.2429 35.7256C39.8358 37.0193 39.6165 39.9013 40.3821 41.4324C40.9388 42.546 43.638 44.9122 43.7234 46.4433Z" fill="#FBE1CC"/>
<path d="M51.9539 32.2458V34.848C51.9539 35.9574 51.0546 36.8567 49.9452 36.8567H48.9269L49.0933 36.6487C49.1796 36.5408 49.2496 36.4207 49.301 36.2924C49.4929 35.8125 49.4063 35.2661 49.0755 34.8691L49.0268 34.8107C48.9168 34.6787 48.8566 34.5123 48.8566 34.3405V32.2458C48.8566 31.3905 49.5499 30.6971 50.4053 30.6971C51.2606 30.6971 51.9539 31.3905 51.9539 32.2458Z" fill="#FBE1CC" stroke="#F9CFAB" stroke-width="0.8" stroke-linejoin="round"/>
<rect x="52.1969" y="31.5326" width="2.54059" height="5.32442" rx="1.2703" fill="#FBE1CC" stroke="#F9CFAB" stroke-width="0.8" stroke-linejoin="round"/>
<path d="M43.7249 53.2793L43.3249 53.2729C43.3232 53.3801 43.3646 53.4835 43.4398 53.5599C43.515 53.6363 43.6177 53.6793 43.7249 53.6793L43.7249 53.2793ZM43.4458 34.7512L43.4003 35.1487L43.423 35.1512L43.4458 35.1512L43.4458 34.7512ZM49.3479 34.7512L49.738 34.6627C49.6966 34.4806 49.5347 34.3512 49.3479 34.3512L49.3479 34.7512ZM48.8742 36.8391L49.1387 37.1392L48.8742 36.8391ZM49.1728 43.4742C49.1474 43.6936 49.3046 43.8922 49.5241 43.9176C49.7435 43.9431 49.942 43.7858 49.9675 43.5664L49.1728 43.4742ZM54.7598 42.4068L55.1542 42.4733L55.1542 42.4733L54.7598 42.4068ZM52.9108 45.7474L53.2912 45.8709L53.2912 45.8709L52.9108 45.7474ZM52.5643 53.2792L52.5643 53.6792C52.6712 53.6792 52.7736 53.6365 52.8487 53.5605C52.9238 53.4846 52.9655 53.3817 52.9643 53.2749L52.5643 53.2792ZM44.2809 37.5351L44.2809 37.1351C44.0816 37.1351 43.9127 37.2818 43.8848 37.4791C43.8569 37.6764 43.9786 37.8642 44.17 37.9194L44.2809 37.5351ZM40.3835 41.4324L40.0258 41.6113L40.3835 41.4324ZM43.7249 53.2793C44.1248 53.2858 44.1248 53.2857 44.1248 53.2857C44.1248 53.2857 44.1248 53.2856 44.1248 53.2855C44.1248 53.2853 44.1248 53.2851 44.1249 53.2848C44.1249 53.2841 44.1249 53.2831 44.1249 53.2818C44.1249 53.2793 44.125 53.2754 44.1251 53.2704C44.1252 53.2602 44.1255 53.2452 44.1258 53.2255C44.1264 53.1862 44.1273 53.1284 44.1283 53.0542C44.1305 52.906 44.1335 52.6925 44.1369 52.4316C44.1435 51.9099 44.1516 51.1981 44.1569 50.4383C44.1675 48.9253 44.1678 47.2019 44.1243 46.421L43.3255 46.4656C43.3673 47.2158 43.3676 48.9105 43.3569 50.4327C43.3516 51.1905 43.3436 51.9006 43.3369 52.4214C43.3336 52.6817 43.3306 52.8947 43.3284 53.0425C43.3274 53.1164 43.3265 53.1741 43.3259 53.2132C43.3256 53.2328 43.3253 53.2477 43.3252 53.2578C43.3251 53.2628 43.325 53.2666 43.325 53.2691C43.325 53.2704 43.325 53.2713 43.325 53.272C43.325 53.2723 43.3249 53.2725 43.3249 53.2727C43.3249 53.2727 43.3249 53.2728 43.3249 53.2728C43.3249 53.2729 43.3249 53.2729 43.7249 53.2793ZM40.6259 35.8456C40.6829 35.6644 40.8291 35.5121 41.0882 35.3887C41.3501 35.264 41.6876 35.1895 42.0411 35.1509C42.3905 35.1128 42.7319 35.112 42.9883 35.1213C43.1158 35.1259 43.2206 35.133 43.2928 35.1388C43.3289 35.1417 43.3568 35.1442 43.3751 35.146C43.3843 35.147 43.3911 35.1477 43.3953 35.1481C43.3975 35.1483 43.399 35.1485 43.3998 35.1486C43.4002 35.1486 43.4005 35.1487 43.4006 35.1487C43.4006 35.1487 43.4006 35.1487 43.4006 35.1487C43.4006 35.1487 43.4005 35.1487 43.4005 35.1487C43.4004 35.1487 43.4003 35.1487 43.4458 34.7512C43.4912 34.3538 43.4911 34.3538 43.491 34.3538C43.4909 34.3538 43.4908 34.3538 43.4907 34.3538C43.4905 34.3537 43.4902 34.3537 43.4899 34.3537C43.4893 34.3536 43.4886 34.3535 43.4877 34.3534C43.4858 34.3532 43.4833 34.353 43.4801 34.3526C43.4738 34.3519 43.4648 34.351 43.4534 34.3499C43.4307 34.3477 43.3981 34.3446 43.3569 34.3413C43.2748 34.3347 43.1581 34.3269 43.0173 34.3218C42.737 34.3117 42.3544 34.3119 41.9543 34.3557C41.5583 34.3989 41.1209 34.4871 40.7443 34.6664C40.3651 34.847 40.0093 35.14 39.8628 35.6055L40.6259 35.8456ZM43.4458 35.1512L49.3479 35.1512L49.3479 34.3512L43.4458 34.3512L43.4458 35.1512ZM49.3479 34.7512C48.9578 34.8397 48.9578 34.8396 48.9577 34.8395C48.9577 34.8395 48.9577 34.8394 48.9577 34.8393C48.9577 34.8392 48.9577 34.8391 48.9576 34.839C48.9576 34.8388 48.9576 34.8388 48.9576 34.8387C48.9576 34.8387 48.9576 34.8391 48.9578 34.8397C48.9581 34.841 48.9586 34.8435 48.9594 34.8472C48.9609 34.8546 48.9633 34.8668 48.9662 34.8832C48.9722 34.9161 48.9802 34.9657 48.9878 35.0281C49.0032 35.1537 49.0161 35.3264 49.0075 35.5161C48.9896 35.9103 48.8833 36.2978 48.6097 36.5391L49.1387 37.1392C49.6546 36.6844 49.7851 36.028 49.8067 35.5523C49.8178 35.307 49.8011 35.0882 49.7819 34.9311C49.7723 34.8521 49.7619 34.7875 49.7536 34.7416C49.7495 34.7186 49.7458 34.7002 49.7431 34.6869C49.7418 34.6802 49.7406 34.6749 49.7398 34.6708C49.7393 34.6688 49.7389 34.6671 49.7386 34.6658C49.7385 34.6651 49.7384 34.6645 49.7383 34.664C49.7382 34.6637 49.7381 34.6635 49.7381 34.6633C49.7381 34.6632 49.738 34.6631 49.738 34.663C49.738 34.6629 49.738 34.6627 49.3479 34.7512ZM54.7598 36.004C54.3599 36.015 54.3599 36.015 54.3599 36.0151C54.3599 36.0151 54.3599 36.0152 54.3599 36.0152C54.3599 36.0154 54.3599 36.0156 54.36 36.016C54.36 36.0166 54.36 36.0176 54.36 36.0189C54.3601 36.0215 54.3602 36.0254 54.3604 36.0306C54.3606 36.041 54.361 36.0564 54.3616 36.0766C54.3627 36.117 54.3642 36.1764 54.3661 36.2523C54.37 36.4042 54.3753 36.6222 54.3812 36.8867C54.3931 37.4158 54.4073 38.1303 54.4168 38.8727C54.4263 39.6155 54.431 40.3841 54.4239 41.0219C54.4167 41.6747 54.397 42.1525 54.3654 42.3402L55.1542 42.4733C55.1985 42.2106 55.2168 41.6629 55.2239 41.0307C55.231 40.3836 55.2262 39.6078 55.2167 38.8625C55.2072 38.1167 55.1929 37.3995 55.181 36.8688C55.1751 36.6034 55.1697 36.3846 55.1659 36.232C55.1639 36.1557 55.1624 36.096 55.1613 36.0554C55.1608 36.035 55.1603 36.0195 55.1601 36.009C55.1599 36.0037 55.1598 35.9997 55.1597 35.997C55.1597 35.9957 55.1597 35.9947 55.1597 35.994C55.1596 35.9936 55.1596 35.9934 55.1596 35.9932C55.1596 35.9931 55.1596 35.9931 55.1596 35.993C55.1596 35.993 55.1596 35.9929 54.7598 36.004ZM54.3654 42.3402C54.2717 42.8955 53.9756 43.3278 53.5952 43.831C53.2271 44.318 52.7722 44.8791 52.5303 45.6238L53.2912 45.8709C53.4831 45.2803 53.8412 44.8324 54.2334 44.3134C54.6133 43.8108 55.0249 43.2404 55.1542 42.4733L54.3654 42.3402ZM52.5303 45.6238C52.4088 45.9978 52.334 46.6786 52.2827 47.4352C52.2302 48.2103 52.1997 49.119 52.1822 49.9835C52.1648 50.8488 52.1603 51.6735 52.1602 52.2816C52.1601 52.5858 52.1612 52.836 52.1622 53.0103C52.1628 53.0974 52.1633 53.1656 52.1637 53.2121C52.1639 53.2353 52.164 53.2531 52.1642 53.2651C52.1642 53.2711 52.1643 53.2757 52.1643 53.2788C52.1643 53.2803 52.1643 53.2815 52.1643 53.2823C52.1643 53.2827 52.1643 53.283 52.1643 53.2832C52.1643 53.2833 52.1643 53.2834 52.1643 53.2835C52.1643 53.2835 52.1643 53.2836 52.5643 53.2792C52.9643 53.2749 52.9643 53.2749 52.9643 53.2748C52.9643 53.2748 52.9643 53.2747 52.9643 53.2746C52.9643 53.2745 52.9643 53.2742 52.9643 53.2738C52.9643 53.2731 52.9643 53.272 52.9643 53.2705C52.9642 53.2676 52.9642 53.2632 52.9641 53.2573C52.964 53.2456 52.9638 53.2281 52.9636 53.2052C52.9633 53.1594 52.9627 53.0919 52.9622 53.0055C52.9612 52.8326 52.9601 52.5841 52.9602 52.2818C52.9603 51.677 52.9647 50.8579 52.9821 49.9996C52.9994 49.1406 53.0296 48.2461 53.0809 47.4893C53.1334 46.7142 53.2055 46.1346 53.2912 45.8709L52.5303 45.6238ZM52.5643 52.8792L43.7249 52.8793L43.7249 53.6793L52.5643 53.6792L52.5643 52.8792ZM48.6097 36.5391C48.5643 36.579 48.471 36.6345 48.3111 36.6938C48.1564 36.7512 47.9638 36.8034 47.7415 36.8499C47.297 36.943 46.766 37.0065 46.2485 37.0494C45.7329 37.0922 45.2402 37.1136 44.8758 37.1244C44.6938 37.1297 44.5444 37.1324 44.4407 37.1337C44.3889 37.1344 44.3486 37.1347 44.3214 37.1349C44.3078 37.135 44.2975 37.135 44.2907 37.135C44.2873 37.1351 44.2847 37.1351 44.2831 37.1351C44.2823 37.1351 44.2817 37.1351 44.2813 37.1351C44.2811 37.1351 44.281 37.1351 44.2809 37.1351C44.2809 37.1351 44.2809 37.1351 44.2809 37.1351C44.2809 37.1351 44.2809 37.1351 44.2809 37.5351C44.2809 37.9351 44.281 37.9351 44.281 37.9351C44.2811 37.9351 44.2811 37.9351 44.2812 37.9351C44.2814 37.9351 44.2816 37.9351 44.2819 37.9351C44.2824 37.9351 44.2832 37.9351 44.2842 37.9351C44.2863 37.9351 44.2892 37.9351 44.293 37.935C44.3006 37.935 44.3118 37.935 44.3262 37.9349C44.3551 37.9347 44.3973 37.9344 44.451 37.9337C44.5585 37.9323 44.7124 37.9295 44.8994 37.924C45.2728 37.913 45.7805 37.891 46.3146 37.8467C46.8467 37.8026 47.4146 37.7357 47.9054 37.633C48.1507 37.5816 48.3848 37.5197 48.5893 37.4439C48.7885 37.37 48.9867 37.2732 49.1387 37.1392L48.6097 36.5391ZM44.2809 37.5351C44.17 37.9194 44.1699 37.9194 44.1698 37.9193C44.1698 37.9193 44.1698 37.9193 44.1698 37.9193C44.1698 37.9193 44.1698 37.9193 44.17 37.9194C44.1703 37.9195 44.171 37.9197 44.1721 37.92C44.1741 37.9206 44.1775 37.9216 44.1822 37.923C44.1917 37.9259 44.2063 37.9303 44.2259 37.9365C44.265 37.9488 44.3236 37.9677 44.3986 37.9935C44.5489 38.0452 44.7649 38.1242 45.0233 38.2324C45.5415 38.4494 46.223 38.7806 46.8859 39.2387C48.222 40.1619 49.3979 41.5344 49.1728 43.4742L49.9675 43.5664C50.2431 41.1912 48.7744 39.5712 47.3407 38.5805C46.6186 38.0816 45.884 37.7255 45.3322 37.4945C45.0556 37.3787 44.8232 37.2935 44.6588 37.237C44.5765 37.2087 44.5112 37.1876 44.4657 37.1733C44.443 37.1661 44.4252 37.1607 44.4128 37.157C44.4065 37.1551 44.4016 37.1536 44.3981 37.1526C44.3964 37.1521 44.395 37.1517 44.3939 37.1514C44.3934 37.1512 44.3929 37.1511 44.3926 37.151C44.3924 37.1509 44.3922 37.1509 44.3921 37.1508C44.3919 37.1508 44.3918 37.1507 44.2809 37.5351ZM44.1243 46.421C44.0974 45.9393 43.8716 45.4361 43.5877 44.9646C43.2989 44.4851 42.9215 43.9932 42.5405 43.5279C42.1747 43.0812 41.7469 42.5901 41.4368 42.2149C41.1009 41.8087 40.8571 41.4851 40.7413 41.2535L40.0258 41.6113C40.1884 41.9365 40.4908 42.3263 40.8202 42.7247C41.1754 43.1543 41.5322 43.5593 41.9215 44.0347C42.2955 44.4915 42.6437 44.9479 42.9024 45.3774C43.166 45.8151 43.3097 46.1817 43.3255 46.4656L44.1243 46.421ZM40.7413 41.2535C40.4013 40.5736 40.2644 39.5471 40.2742 38.4937C40.284 37.4483 40.4372 36.4454 40.6259 35.8456L39.8628 35.6055C39.6445 36.2995 39.4845 37.3844 39.4742 38.4862C39.464 39.5801 39.6002 40.7602 40.0258 41.6113L40.7413 41.2535Z" fill="#F9CFAB"/>
<circle cx="48" cy="37" r="17" stroke="#F096A3" stroke-width="4"/>
<rect x="45.4326" y="53.946" width="5.13514" height="23.6216" fill="#F096A3"/>
<rect x="39.2705" y="68.3245" width="17.4595" height="4.10811" fill="#F096A3"/>
</svg>
