<svg width="26" height="26" viewBox="0 0 26 26" fill="none" xmlns="http://www.w3.org/2000/svg">
<path d="M4.33317 22.75H14.7548C15.38 22.7503 15.9978 22.6152 16.5658 22.3539C17.1337 22.0927 17.6384 21.7115 18.0449 21.2366L23.5721 14.7886C23.6878 14.6538 23.7686 14.4926 23.8074 14.3192C23.8462 14.1458 23.8417 13.9656 23.7944 13.7943C23.7471 13.6231 23.6584 13.4661 23.5361 13.3372C23.4139 13.2083 23.2618 13.1115 23.0933 13.0552L20.9613 12.3446C20.446 12.1771 19.8973 12.1392 19.3639 12.2342C18.8305 12.3293 18.3287 12.5543 17.903 12.8895L14.4526 15.6487L13.7842 14.3108C13.4261 13.5896 12.8732 12.9831 12.1881 12.5599C11.5031 12.1368 10.7132 11.914 9.908 11.9166H4.33317C3.13825 11.9166 2.1665 12.8884 2.1665 14.0833V20.5833C2.1665 21.7782 3.13825 22.75 4.33317 22.75ZM4.33317 14.0833H9.908C10.7346 14.0833 11.4767 14.5416 11.8461 15.2804L12.3303 16.25H7.58317V18.4166H14.0983C14.265 18.4144 14.4289 18.3736 14.5772 18.2975L14.5804 18.2964L14.5848 18.2942H14.588L14.5902 18.2931H14.5945L14.5956 18.2921C14.6053 18.2953 14.5988 18.291 14.5988 18.291C14.6097 18.291 14.601 18.2899 14.601 18.2899H14.6021L14.6043 18.2888L14.6075 18.2877L14.6097 18.2866L14.6118 18.2856L14.6151 18.2845L14.6173 18.2834C14.6205 18.2834 14.6183 18.2823 14.6194 18.2823L14.6227 18.2801L14.6248 18.2791L14.627 18.278L14.6303 18.2769L14.6324 18.2758H14.6335L14.6357 18.2747H14.6368L14.6389 18.2736L14.6411 18.2726C14.6508 18.2715 14.6443 18.2715 14.6443 18.2715L14.6465 18.2704C14.6883 18.2452 14.7281 18.2169 14.7657 18.1859L19.2572 14.5925C19.541 14.3671 19.9321 14.2967 20.2755 14.4116L20.8789 14.6131L16.4015 19.838C16.1955 20.0718 15.9422 20.2592 15.6583 20.3877C15.3744 20.5162 15.0665 20.5829 14.7548 20.5833H4.33317V14.0833ZM17.3332 2.16664H17.3148C17.1382 2.1688 16.2249 2.20889 15.1665 2.93039C14.1363 2.22839 13.2447 2.17205 13.0345 2.16772L13.002 2.16664H12.9977C12.1299 2.16664 11.3131 2.50572 10.7021 3.1178C10.0889 3.73205 9.74984 4.5478 9.74984 5.41664C9.74984 6.28547 10.0889 7.10122 10.6826 7.69597L14.3811 11.5808C14.4828 11.6864 14.6049 11.7704 14.7399 11.8278C14.8749 11.8851 15.0201 11.9146 15.1667 11.9145C15.3134 11.9144 15.4586 11.8847 15.5935 11.8272C15.7284 11.7697 15.8503 11.6855 15.9519 11.5797L19.6309 7.71439C20.2452 7.10122 20.5832 6.28547 20.5832 5.41664C20.5832 4.5478 20.2441 3.73205 19.632 3.11889C19.3312 2.81614 18.9733 2.57609 18.5791 2.41263C18.1849 2.24918 17.7621 2.16556 17.3353 2.16664H17.3332ZM18.4165 5.41664C18.4165 5.70589 18.3038 5.9778 18.0796 6.20205L15.1665 9.26247L12.2339 6.18255C12.0292 5.9778 11.9165 5.70589 11.9165 5.41664C11.9165 5.12739 12.0292 4.85547 12.235 4.64964C12.4309 4.45036 12.6977 4.33665 12.9771 4.3333C13.0042 4.33439 13.5209 4.36797 14.133 4.85872C14.2208 4.92914 14.3096 5.0093 14.4006 5.09922L15.1665 5.86514L15.9324 5.09922C16.0234 5.0093 16.1123 4.92914 16.2 4.85872C16.7731 4.3983 17.2573 4.34089 17.3397 4.33439C17.4809 4.33436 17.6207 4.3623 17.751 4.41659C17.8814 4.47089 17.9997 4.55046 18.0991 4.65072C18.3038 4.85547 18.4165 5.12739 18.4165 5.41664Z" fill="#C281ED"/>
</svg>
