<svg width="26" height="26" viewBox="0 0 26 26" fill="none" xmlns="http://www.w3.org/2000/svg">
<path d="M19.4998 11.9167C19.4998 10.8778 18.7632 10.0089 17.7871 9.79983C18.1771 9.14875 18.4165 8.39583 18.4165 7.58333C18.4165 5.1935 16.473 3.25 14.0832 3.25C12.4398 3.25 11.0271 4.17842 10.2915 5.52933C9.55592 4.17842 8.14325 3.25 6.49984 3.25C4.11 3.25 2.1665 5.1935 2.1665 7.58333C2.1665 8.5605 2.5045 9.45425 3.05159 10.179C2.77814 10.379 2.55555 10.6404 2.4018 10.9423C2.24805 11.2441 2.16745 11.5779 2.1665 11.9167V20.5833C2.1665 21.7783 3.13825 22.75 4.33317 22.75H17.3332C18.5281 22.75 19.4998 21.7783 19.4998 20.5833V17.7255L23.8332 19.8922V12.3088L19.4998 14.4755V11.9167ZM14.0832 5.41667C15.2781 5.41667 16.2498 6.38842 16.2498 7.58333C16.2498 8.77825 15.2781 9.75 14.0832 9.75C12.8883 9.75 11.9165 8.77825 11.9165 7.58333C11.9165 6.38842 12.8883 5.41667 14.0832 5.41667ZM6.49984 5.41667C7.69475 5.41667 8.6665 6.38842 8.6665 7.58333C8.6665 8.77825 7.69475 9.75 6.49984 9.75C5.30492 9.75 4.33317 8.77825 4.33317 7.58333C4.33317 6.38842 5.30492 5.41667 6.49984 5.41667ZM4.33317 20.5833V11.9167H17.3332L17.3353 20.5833H4.33317Z" fill="#C281ED"/>
</svg>
