<svg width="234" height="199" viewBox="0 0 234 199" fill="none" xmlns="http://www.w3.org/2000/svg">
<path fill-rule="evenodd" clip-rule="evenodd" d="M0 167.92C35.0479 150.653 52.5717 130.365 52.5717 107.054C37.6332 105.328 25.2804 99.2123 15.5129 88.7082C5.74547 78.2042 0.861832 66.0456 0.861832 52.2321C0.861832 37.5553 5.60184 25.1808 15.082 15.1085C24.5622 5.0361 36.4841 0 50.848 0C66.9356 0 80.8683 6.54694 92.6468 19.641C104.425 32.7351 110.314 48.6348 110.314 67.3406C110.314 123.458 79.0014 167.344 16.3748 199L0 167.92ZM123.686 167.92C159.021 150.653 176.688 130.365 176.688 107.054C161.463 105.328 148.966 99.2123 139.199 88.7082C129.431 78.2042 124.548 66.0456 124.548 52.2321C124.548 37.5553 129.359 25.1808 138.983 15.1085C148.607 5.0361 160.601 0 174.965 0C191.052 0 204.913 6.54694 216.548 19.641C228.183 32.7351 234 48.6348 234 67.3406C234 123.458 202.831 167.344 140.491 199L123.686 167.92Z" fill="#F0BBC7"/>
</svg>
