<svg width="96" height="96" viewBox="0 0 96 96" fill="none" xmlns="http://www.w3.org/2000/svg">
<rect width="96" height="96" rx="48" fill="white"/>
<path d="M44.1594 55.3388C42.3508 55.5597 39.1677 55.0483 39.1677 55.0483L40.2495 65.7291C40.2495 65.7291 44.6516 65.0711 46.7677 65.6076C48.9831 66.1692 49.8592 67.897 52.0311 68.1177C53.5106 68.268 55.6363 68.1264 55.6363 68.1264L66.4529 68.1544C66.4529 68.1544 69.2882 68.4044 69.6464 66.6372C69.9273 65.2512 67.9887 64.1368 67.9887 64.1368C67.9887 64.1368 72.5803 64.6228 72.9853 62.6248C73.2662 61.2388 71.6036 60.5405 71.6036 60.5405C71.6036 60.5405 75.1224 60.3261 75.2141 58.7476C75.3593 56.2519 72.0298 56.659 72.0298 56.659C72.0298 56.659 74.0237 56.1585 73.5608 54.4439C73.2348 53.2365 70.4909 53.4327 70.4909 53.4327L57.8932 53.4329C57.8932 53.4329 64.7014 48.3192 65.2586 47.35C65.8158 46.3807 64.4344 44.297 63.1842 45.1258C62.5047 45.5763 58.2013 47.7697 53.4634 50.3703C49.484 52.5546 44.9851 55.238 44.1594 55.3388Z" fill="#EF9D74"/>
<path d="M39.1677 55.0483L39.2074 54.8015C39.1307 54.7892 39.0526 54.8132 38.9962 54.8665C38.9397 54.9198 38.9112 54.9963 38.919 55.0735L39.1677 55.0483ZM44.1594 55.3388L44.1897 55.587L44.1897 55.587L44.1594 55.3388ZM57.8932 53.4329L57.7431 53.233C57.6571 53.2976 57.622 53.41 57.6561 53.512C57.6901 53.6141 57.7857 53.6829 57.8932 53.6829L57.8932 53.4329ZM70.4909 53.4327L70.4909 53.6827L70.4998 53.6827L70.5087 53.6821L70.4909 53.4327ZM72.0298 56.659L71.9689 56.4165C71.8409 56.4486 71.7599 56.5748 71.784 56.7047C71.8081 56.8345 71.9291 56.9231 72.0601 56.9071L72.0298 56.659ZM75.2141 58.7476L75.4637 58.7622L75.4637 58.7622L75.2141 58.7476ZM71.6036 60.5405L71.5884 60.291C71.4724 60.2981 71.3766 60.3841 71.3571 60.4986C71.3376 60.6132 71.3997 60.726 71.5068 60.771L71.6036 60.5405ZM72.9853 62.6248L73.2303 62.6745L73.2303 62.6745L72.9853 62.6248ZM67.9887 64.1368L68.015 63.8882C67.8975 63.8757 67.7874 63.9473 67.7509 64.0597C67.7145 64.1721 67.7617 64.2946 67.8641 64.3535L67.9887 64.1368ZM69.6464 66.6372L69.8914 66.6869L69.8914 66.6869L69.6464 66.6372ZM66.4529 68.1544L66.4749 67.9053L66.4642 67.9044L66.4535 67.9044L66.4529 68.1544ZM55.6363 68.1264L55.6369 67.8764L55.6283 67.8764L55.6197 67.877L55.6363 68.1264ZM52.0311 68.1177L52.0564 67.869L52.0564 67.869L52.0311 68.1177ZM46.7677 65.6076L46.7063 65.8499L46.7063 65.8499L46.7677 65.6076ZM40.2495 65.7291L40.0008 65.7543C40.0077 65.8223 40.0421 65.8846 40.0961 65.9265C40.15 65.9685 40.2188 65.9865 40.2865 65.9764L40.2495 65.7291ZM73.5608 54.4439L73.8022 54.3787L73.8022 54.3787L73.5608 54.4439ZM53.4634 50.3703L53.3431 50.1512L53.3431 50.1512L53.4634 50.3703ZM39.1677 55.0483C39.128 55.2952 39.1281 55.2952 39.1281 55.2952C39.1282 55.2952 39.1282 55.2952 39.1283 55.2952C39.1284 55.2952 39.1286 55.2952 39.1288 55.2953C39.1292 55.2954 39.1298 55.2955 39.1307 55.2956C39.1323 55.2958 39.1347 55.2962 39.1379 55.2967C39.1441 55.2977 39.1534 55.2992 39.1655 55.3011C39.1897 55.3048 39.2252 55.3103 39.271 55.3171C39.3626 55.3308 39.495 55.3501 39.6596 55.3725C39.9885 55.4173 40.4462 55.4747 40.9609 55.5252C41.9841 55.6256 43.2559 55.701 44.1897 55.587L44.1291 55.0907C43.2544 55.1975 42.0303 55.1277 41.0097 55.0276C40.5027 54.9779 40.0515 54.9213 39.7271 54.8771C39.5649 54.855 39.4346 54.836 39.345 54.8226C39.3002 54.8159 39.2656 54.8106 39.2423 54.807C39.2306 54.8052 39.2218 54.8038 39.2159 54.8029C39.213 54.8024 39.2108 54.802 39.2094 54.8018C39.2087 54.8017 39.2081 54.8016 39.2078 54.8016C39.2076 54.8015 39.2075 54.8015 39.2074 54.8015C39.2074 54.8015 39.2074 54.8015 39.2074 54.8015C39.2074 54.8015 39.2074 54.8015 39.1677 55.0483ZM63.3224 45.3342C63.5691 45.1706 63.8108 45.1535 64.0387 45.2257C64.2757 45.3007 64.5097 45.4776 64.7042 45.72C64.8978 45.9614 65.0395 46.2523 65.1013 46.5311C65.1638 46.8128 65.1397 47.0552 65.0419 47.2254L65.4753 47.4746C65.6561 47.1601 65.6683 46.7785 65.5894 46.4228C65.5099 46.0642 65.3325 45.7042 65.0942 45.4071C64.8567 45.1111 64.5458 44.8618 64.1896 44.749C63.8242 44.6333 63.4245 44.6666 63.0461 44.9174L63.3224 45.3342ZM65.0419 47.2254C64.9921 47.3119 64.8501 47.4752 64.608 47.7103C64.3737 47.9378 64.0664 48.2133 63.7098 48.5197C62.997 49.1321 62.0969 49.8597 61.212 50.5587C60.3275 51.2574 59.4602 51.926 58.8139 52.4201C58.4908 52.6671 58.223 52.8704 58.036 53.0119C57.9425 53.0827 57.8692 53.138 57.8193 53.1756C57.7944 53.1944 57.7753 53.2087 57.7625 53.2184C57.7561 53.2232 57.7512 53.2269 57.7479 53.2293C57.7463 53.2306 57.7451 53.2315 57.7443 53.2321C57.7439 53.2324 57.7436 53.2326 57.7434 53.2328C57.7433 53.2328 57.7432 53.2329 57.7432 53.2329C57.7431 53.233 57.7431 53.233 57.8932 53.4329C58.0434 53.6328 58.0434 53.6327 58.0435 53.6327C58.0435 53.6327 58.0436 53.6326 58.0437 53.6325C58.0439 53.6324 58.0442 53.6321 58.0447 53.6318C58.0455 53.6312 58.0467 53.6302 58.0484 53.629C58.0517 53.6265 58.0566 53.6228 58.0631 53.6179C58.076 53.6082 58.0953 53.5937 58.1203 53.5748C58.1704 53.5371 58.244 53.4816 58.3377 53.4106C58.5253 53.2687 58.7937 53.0649 59.1175 52.8173C59.7651 52.3223 60.6347 51.652 61.5219 50.9511C62.4087 50.2505 63.3151 49.518 64.0356 48.899C64.3957 48.5896 64.7116 48.3066 64.9563 48.069C65.1932 47.8389 65.3858 47.6304 65.4753 47.4746L65.0419 47.2254ZM57.8932 53.6829L70.4909 53.6827L70.4909 53.1827L57.8932 53.1829L57.8932 53.6829ZM72.0298 56.659C72.0601 56.9071 72.0601 56.9071 72.06 56.9071C72.06 56.9071 72.0599 56.9071 72.0599 56.9071C72.0599 56.9071 72.0599 56.9071 72.06 56.9071C72.0602 56.9071 72.0606 56.9071 72.0611 56.907C72.0622 56.9069 72.0641 56.9067 72.0667 56.9064C72.072 56.9058 72.0803 56.9049 72.0914 56.9038C72.1136 56.9017 72.1469 56.8987 72.1898 56.8958C72.2756 56.8898 72.399 56.8839 72.5471 56.8843C72.845 56.8851 73.2341 56.9114 73.6139 57.0094C73.9955 57.108 74.3477 57.2737 74.595 57.5389C74.8354 57.7967 74.9973 58.1701 74.9646 58.7331L75.4637 58.7622C75.5035 58.0772 75.3037 57.5657 74.9606 57.1979C74.6245 56.8374 74.1715 56.637 73.7389 56.5253C73.3045 56.4132 72.8703 56.3852 72.5484 56.3843C72.3866 56.3839 72.2511 56.3903 72.1554 56.3969C72.1075 56.4002 72.0694 56.4036 72.0429 56.4062C72.0296 56.4075 72.0193 56.4086 72.0119 56.4094C72.0083 56.4098 72.0054 56.4101 72.0033 56.4104C72.0023 56.4105 72.0014 56.4106 72.0008 56.4106C72.0005 56.4107 72.0002 56.4107 72 56.4107C71.9999 56.4108 71.9997 56.4108 71.9997 56.4108C71.9996 56.4108 71.9995 56.4108 72.0298 56.659ZM74.9646 58.7331C74.9477 59.0239 74.7748 59.2722 74.4671 59.4895C74.1577 59.7079 73.7404 59.8733 73.3067 59.9954C72.8761 60.1166 72.4457 60.1908 72.1213 60.2346C71.9596 60.2565 71.8253 60.2706 71.7318 60.2793C71.6851 60.2836 71.6487 60.2866 71.6242 60.2885C71.612 60.2894 71.6027 60.29 71.5967 60.2904C71.5937 60.2907 71.5914 60.2908 71.59 60.2909C71.5893 60.2909 71.5889 60.291 71.5886 60.291C71.5884 60.291 71.5883 60.291 71.5883 60.291C71.5883 60.291 71.5883 60.291 71.5883 60.291C71.5883 60.291 71.5884 60.291 71.6036 60.5405C71.6188 60.7901 71.6188 60.7901 71.6189 60.7901C71.619 60.7901 71.6191 60.7901 71.6192 60.79C71.6193 60.79 71.6196 60.79 71.6199 60.79C71.6204 60.79 71.6212 60.7899 71.6222 60.7899C71.6242 60.7897 71.627 60.7895 71.6307 60.7893C71.6379 60.7888 71.6485 60.7881 71.662 60.787C71.6891 60.785 71.7284 60.7818 71.7781 60.7772C71.8774 60.7679 72.0187 60.753 72.1883 60.7301C72.5266 60.6844 72.9816 60.6063 73.4422 60.4767C73.8997 60.3479 74.3792 60.1636 74.7555 59.8979C75.1333 59.6311 75.4347 59.2606 75.4637 58.7622L74.9646 58.7331ZM71.6036 60.5405C71.5068 60.771 71.5067 60.771 71.5066 60.771C71.5066 60.771 71.5065 60.7709 71.5065 60.7709C71.5064 60.7709 71.5064 60.7709 71.5064 60.7709C71.5064 60.7709 71.5064 60.7709 71.5066 60.771C71.5069 60.7711 71.5076 60.7714 71.5087 60.7719C71.5109 60.7728 71.5145 60.7744 71.5195 60.7767C71.5296 60.7812 71.5451 60.7884 71.5653 60.7982C71.6057 60.8178 71.6643 60.8477 71.7343 60.888C71.8752 60.969 72.0581 61.0893 72.2311 61.2474C72.5793 61.5656 72.8561 62.0039 72.7403 62.5751L73.2303 62.6745C73.3955 61.8596 72.9814 61.2558 72.5685 60.8784C72.3609 60.6887 72.1457 60.5478 71.9836 60.4546C71.9022 60.4077 71.8331 60.3723 71.7836 60.3483C71.7589 60.3363 71.739 60.3271 71.7248 60.3208C71.7177 60.3176 71.7121 60.3151 71.708 60.3133C71.7059 60.3124 71.7043 60.3117 71.703 60.3111C71.7023 60.3109 71.7018 60.3106 71.7014 60.3105C71.7012 60.3104 71.701 60.3103 71.7008 60.3102C71.7007 60.3102 71.7006 60.3101 71.7006 60.3101C71.7005 60.3101 71.7004 60.31 71.6036 60.5405ZM72.7403 62.5751C72.6603 62.9697 72.3731 63.2624 71.925 63.4788C71.475 63.6961 70.8958 63.8186 70.3086 63.8814C69.7247 63.9439 69.1506 63.9457 68.7207 63.9316C68.5062 63.9246 68.3288 63.9136 68.2053 63.9044C68.1436 63.8999 68.0955 63.8957 68.0631 63.8928C68.0469 63.8913 68.0346 63.8901 68.0265 63.8893C68.0224 63.8889 68.0194 63.8886 68.0175 63.8884C68.0166 63.8883 68.0159 63.8883 68.0155 63.8882C68.0152 63.8882 68.0151 63.8882 68.015 63.8882C68.015 63.8882 68.015 63.8882 68.015 63.8882C68.015 63.8882 68.015 63.8882 67.9887 64.1368C67.9624 64.3854 67.9625 64.3854 67.9626 64.3854C67.9626 64.3854 67.9627 64.3854 67.9628 64.3854C67.9631 64.3855 67.9633 64.3855 67.9637 64.3855C67.9644 64.3856 67.9654 64.3857 67.9666 64.3858C67.9691 64.3861 67.9727 64.3864 67.9774 64.3869C67.9867 64.3878 68.0002 64.3891 68.0177 64.3907C68.0527 64.3939 68.1037 64.3983 68.1683 64.4031C68.2976 64.4127 68.482 64.4241 68.7043 64.4314C69.148 64.4459 69.7471 64.4444 70.3618 64.3786C70.9731 64.3132 71.6177 64.1825 72.1425 63.9291C72.6693 63.6746 73.1078 63.2789 73.2303 62.6745L72.7403 62.5751ZM67.9887 64.1368C67.8641 64.3535 67.8641 64.3535 67.864 64.3535C67.864 64.3535 67.864 64.3534 67.864 64.3534C67.8639 64.3534 67.864 64.3534 67.864 64.3534C67.864 64.3535 67.8642 64.3536 67.8645 64.3537C67.8651 64.3541 67.8661 64.3547 67.8676 64.3555C67.8706 64.3573 67.8752 64.3601 67.8816 64.3639C67.8942 64.3715 67.9133 64.3831 67.9379 64.3987C67.987 64.4298 68.0578 64.4762 68.1424 64.5363C68.312 64.657 68.5338 64.8306 68.7457 65.0436C69.1824 65.4826 69.5155 66.0246 69.4014 66.5876L69.8914 66.6869C70.0582 65.8638 69.5625 65.1557 69.1001 64.6909C68.8625 64.4521 68.6172 64.2604 68.4321 64.1288C68.3393 64.0628 68.2609 64.0114 68.2051 63.9761C68.1772 63.9584 68.1549 63.9448 68.1393 63.9354C68.1315 63.9307 68.1253 63.9271 68.121 63.9245C68.1188 63.9232 68.117 63.9222 68.1158 63.9215C68.1151 63.9211 68.1146 63.9208 68.1142 63.9205C68.114 63.9204 68.1138 63.9203 68.1137 63.9202C68.1136 63.9202 68.1135 63.9202 68.1135 63.9201C68.1134 63.9201 68.1133 63.92 67.9887 64.1368ZM69.4014 66.5876C69.2538 67.3156 68.5946 67.6602 67.8639 67.8138C67.5077 67.8887 67.159 67.9118 66.8977 67.9159C66.7675 67.9179 66.6603 67.9151 66.5862 67.9119C66.5492 67.9103 66.5206 67.9086 66.5016 67.9073C66.4921 67.9067 66.485 67.9061 66.4805 67.9058C66.4782 67.9056 66.4766 67.9055 66.4757 67.9054C66.4752 67.9054 66.4749 67.9053 66.4748 67.9053C66.4747 67.9053 66.4747 67.9053 66.4747 67.9053C66.4747 67.9053 66.4747 67.9053 66.4747 67.9053C66.4748 67.9053 66.4749 67.9053 66.4529 68.1544C66.4309 68.4034 66.431 68.4034 66.4311 68.4034C66.4312 68.4034 66.4313 68.4034 66.4314 68.4034C66.4316 68.4035 66.4318 68.4035 66.4321 68.4035C66.4326 68.4036 66.4333 68.4036 66.4342 68.4037C66.436 68.4038 66.4385 68.404 66.4416 68.4043C66.4479 68.4048 66.4567 68.4054 66.4681 68.4062C66.4908 68.4077 66.5234 68.4096 66.5646 68.4114C66.647 68.415 66.7641 68.418 66.9054 68.4158C67.1868 68.4115 67.5694 68.3867 67.9667 68.3031C68.7432 68.1399 69.6808 67.726 69.8914 66.6869L69.4014 66.5876ZM66.4535 67.9044L55.6369 67.8764L55.6356 68.3764L66.4523 68.4044L66.4535 67.9044ZM55.6363 68.1264C55.6197 67.877 55.6197 67.877 55.6197 67.877C55.6197 67.877 55.6196 67.877 55.6196 67.877C55.6196 67.877 55.6195 67.877 55.6194 67.877C55.6192 67.877 55.6188 67.877 55.6183 67.877C55.6174 67.8771 55.6159 67.8772 55.614 67.8773C55.6101 67.8776 55.6042 67.878 55.5964 67.8785C55.5808 67.8794 55.5576 67.8809 55.5274 67.8826C55.4671 67.8862 55.3791 67.8911 55.2688 67.8965C55.048 67.9073 54.7383 67.9202 54.3827 67.9285C53.6691 67.945 52.7803 67.9425 52.0564 67.869L52.0059 68.3664C52.7614 68.4432 53.6752 68.445 54.3943 68.4283C54.7551 68.42 55.0692 68.4069 55.2933 68.3959C55.4054 68.3904 55.495 68.3854 55.5567 68.3818C55.5876 68.38 55.6115 68.3785 55.6277 68.3775C55.6358 68.377 55.6421 68.3766 55.6463 68.3763C55.6484 68.3761 55.65 68.376 55.6511 68.376C55.6517 68.3759 55.6521 68.3759 55.6524 68.3759C55.6525 68.3759 55.6527 68.3759 55.6527 68.3759C55.6528 68.3759 55.6528 68.3759 55.6528 68.3759C55.6529 68.3759 55.6529 68.3759 55.6363 68.1264ZM52.0564 67.869C51.0384 67.7655 50.3216 67.312 49.5578 66.7847C48.7984 66.2606 47.9883 65.6591 46.8292 65.3652L46.7063 65.8499C47.7626 66.1177 48.4981 66.6609 49.2737 67.1962C50.0447 67.7284 50.8519 68.2492 52.0059 68.3664L52.0564 67.869ZM46.8292 65.3652C45.7274 65.0859 44.0606 65.1205 42.6972 65.2178C42.0098 65.2669 41.3893 65.3328 40.9407 65.3865C40.7163 65.4133 40.5348 65.4371 40.4091 65.4542C40.3462 65.4628 40.2973 65.4696 40.264 65.4744C40.2474 65.4768 40.2346 65.4786 40.226 65.4799C40.2217 65.4805 40.2184 65.481 40.2161 65.4814C40.215 65.4815 40.2141 65.4817 40.2135 65.4817C40.2132 65.4818 40.213 65.4818 40.2128 65.4818C40.2127 65.4819 40.2127 65.4819 40.2126 65.4819C40.2126 65.4819 40.2125 65.4819 40.2495 65.7291C40.2865 65.9764 40.2865 65.9764 40.2865 65.9764C40.2865 65.9764 40.2865 65.9764 40.2866 65.9764C40.2867 65.9764 40.2868 65.9763 40.2871 65.9763C40.2875 65.9762 40.2883 65.9761 40.2893 65.976C40.2913 65.9757 40.2943 65.9752 40.2984 65.9746C40.3065 65.9734 40.3188 65.9717 40.3349 65.9694C40.3671 65.9647 40.4148 65.958 40.4765 65.9496C40.5998 65.9328 40.7787 65.9094 41.0001 65.8829C41.443 65.83 42.0553 65.7649 42.7329 65.7165C44.0995 65.619 45.6918 65.5927 46.7063 65.8499L46.8292 65.3652ZM40.4982 65.704L39.4164 55.0231L38.919 55.0735L40.0008 65.7543L40.4982 65.704ZM70.4909 53.4327C70.5087 53.6821 70.5087 53.6821 70.5086 53.6821C70.5086 53.6821 70.5086 53.6821 70.5086 53.6821C70.5086 53.6821 70.5087 53.6821 70.5088 53.6821C70.509 53.6821 70.5093 53.682 70.5098 53.682C70.5108 53.6819 70.5125 53.6818 70.5148 53.6817C70.5194 53.6814 70.5265 53.6809 70.5359 53.6804C70.5548 53.6793 70.583 53.6779 70.6193 53.6764C70.6921 53.6735 70.797 53.6707 70.9243 53.6709C71.1796 53.6714 71.5206 53.6843 71.8689 53.7331C72.22 53.7823 72.5634 53.866 72.8319 54.0002C73.1001 54.1341 73.2636 54.3022 73.3194 54.509L73.8022 54.3787C73.695 53.9818 73.3932 53.7217 73.0553 53.5529C72.7177 53.3842 72.3139 53.2906 71.9383 53.2379C71.5599 53.1849 71.1945 53.1714 70.9252 53.1709C70.7901 53.1707 70.6781 53.1737 70.5995 53.1768C70.5602 53.1784 70.5291 53.18 70.5076 53.1812C70.4969 53.1818 70.4885 53.1823 70.4827 53.1827C70.4798 53.1829 70.4775 53.183 70.4759 53.1831C70.4751 53.1832 70.4745 53.1832 70.474 53.1833C70.4737 53.1833 70.4735 53.1833 70.4734 53.1833C70.4733 53.1833 70.4732 53.1833 70.4732 53.1833C70.4731 53.1833 70.473 53.1833 70.4909 53.4327ZM73.3194 54.509C73.4216 54.8875 73.3852 55.1828 73.2866 55.416C73.1862 55.6532 73.0135 55.8445 72.8163 55.9964C72.6191 56.1483 72.4058 56.2544 72.2392 56.3227C72.1566 56.3566 72.087 56.3806 72.0389 56.3958C72.0149 56.4035 71.9963 56.4089 71.9843 56.4123C71.9782 56.414 71.9739 56.4152 71.9713 56.4159C71.97 56.4162 71.9691 56.4164 71.9687 56.4165C71.9685 56.4166 71.9684 56.4166 71.9685 56.4166C71.9685 56.4166 71.9685 56.4166 71.9686 56.4166C71.9687 56.4166 71.9687 56.4165 71.9688 56.4165C71.9688 56.4165 71.9689 56.4165 72.0298 56.659C72.0907 56.9014 72.0908 56.9014 72.0909 56.9014C72.0909 56.9014 72.0911 56.9013 72.0912 56.9013C72.0914 56.9013 72.0916 56.9012 72.0918 56.9011C72.0924 56.901 72.093 56.9008 72.0938 56.9006C72.0953 56.9003 72.0973 56.8997 72.0997 56.8991C72.1047 56.8978 72.1114 56.8959 72.1199 56.8935C72.1368 56.8888 72.1607 56.8818 72.1903 56.8724C72.2494 56.8536 72.3319 56.8251 72.429 56.7853C72.6218 56.7062 72.878 56.58 73.1215 56.3925C73.3649 56.2049 73.6038 55.9495 73.7471 55.6107C73.8922 55.2678 73.9314 54.8575 73.8022 54.3787L73.3194 54.509ZM44.1897 55.587C44.3304 55.5698 44.5191 55.5041 44.7291 55.4168C44.9465 55.3263 45.2113 55.2019 45.5136 55.0507C46.1187 54.7484 46.8867 54.3331 47.75 53.8545C49.4834 52.8936 51.5912 51.6832 53.5837 50.5895L53.3431 50.1512C51.3562 51.2418 49.2248 52.4652 47.5075 53.4172C46.6454 53.8952 45.8851 54.3061 45.2901 54.6035C44.9924 54.7523 44.7392 54.871 44.537 54.9552C44.3273 55.0424 44.1949 55.0826 44.1291 55.0907L44.1897 55.587ZM53.5837 50.5895C55.9508 49.2901 58.2097 48.0924 59.9628 47.1626C61.7058 46.2382 62.9692 45.5683 63.3224 45.3342L63.0461 44.9174C62.7198 45.1338 61.4916 45.7858 59.7286 46.7209C57.9757 47.6506 55.7138 48.8499 53.3431 50.1512L53.5837 50.5895Z" fill="#EF9D74"/>
<line x1="67.8271" y1="64.2639" x2="60.0818" y2="64.7779" stroke="#D98B66" stroke-width="0.3" stroke-linecap="round"/>
<line x1="71.3876" y1="60.5844" x2="63.6424" y2="61.0984" stroke="#D98B66" stroke-width="0.3" stroke-linecap="round"/>
<line x1="72.2851" y1="56.5095" x2="64.5398" y2="57.0235" stroke="#D98B66" stroke-width="0.3" stroke-linecap="round"/>
<path d="M41.9606 48C42.7758 46.3705 44.9609 44 44.9609 44L35.4609 39C35.4609 39 33.577 43.0327 31.9606 44.5C30.2684 46.0362 28.3442 45.8117 26.9602 47.5C26.0174 48.6501 24.9609 50.5 24.9609 50.5L18.9609 59.5C18.9609 59.5 17.1859 61.725 18.4608 63C19.4608 64 21.4608 63 21.4608 63C21.4608 63 18.5187 66.5585 19.9602 68C20.9602 69 22.4609 68 22.4609 68C22.4609 68 20.6953 71.0513 21.9602 72C23.9602 73.5 25.4606 70.5 25.4606 70.5C25.4606 70.5 24.776 72.4384 26.4609 73C27.6473 73.3955 29 71 29 71L35.9606 60.5C35.9606 60.5 36.4609 69 36.9609 70C37.4609 71 39.9609 71 39.9609 69.5C39.9609 68.6847 40.5106 63.886 40.9609 58.5C41.3391 53.9763 41.5885 48.7439 41.9606 48Z" fill="#F9CFAB"/>
<path d="M44.9609 44L45.1447 44.1694C45.1973 44.1123 45.2204 44.034 45.2073 43.9575C45.1941 43.881 45.146 43.8149 45.0773 43.7788L44.9609 44ZM41.9606 48L41.737 47.8881L41.737 47.8881L41.9606 48ZM35.9606 60.5L36.2102 60.4853C36.2038 60.3779 36.1295 60.2866 36.0257 60.2586C35.9218 60.2306 35.8117 60.2722 35.7522 60.3619L35.9606 60.5ZM29 71L28.7916 70.8619L28.7866 70.8693L28.7823 70.8771L29 71ZM25.4606 70.5L25.6963 70.5833C25.7403 70.4587 25.6799 70.3215 25.5583 70.2699C25.4368 70.2183 25.2961 70.2701 25.237 70.3882L25.4606 70.5ZM21.9602 72L21.8102 72.2L21.8102 72.2L21.9602 72ZM22.4609 68L22.6773 68.1252C22.7355 68.0246 22.7167 67.8972 22.632 67.8177C22.5473 67.7382 22.4189 67.7275 22.3223 67.792L22.4609 68ZM19.9602 68L19.7834 68.1768L19.7834 68.1768L19.9602 68ZM21.4608 63L21.6535 63.1593C21.7288 63.0682 21.7301 62.9369 21.6565 62.8444C21.583 62.7519 21.4547 62.7235 21.349 62.7764L21.4608 63ZM18.4608 63L18.2841 63.1768L18.2841 63.1768L18.4608 63ZM18.9609 59.5L19.1563 59.6559L19.163 59.6476L19.1689 59.6387L18.9609 59.5ZM24.9609 50.5L25.1689 50.6387L25.1737 50.6315L25.178 50.624L24.9609 50.5ZM26.9602 47.5L27.1535 47.6585L27.1535 47.6585L26.9602 47.5ZM31.9606 44.5L31.7926 44.3149L31.7926 44.3149L31.9606 44.5ZM35.4609 39L35.5773 38.7788C35.5168 38.7469 35.4459 38.7413 35.3811 38.7631C35.3164 38.7849 35.2633 38.8323 35.2344 38.8942L35.4609 39ZM26.4609 73L26.3818 73.2372L26.3818 73.2372L26.4609 73ZM40.9609 58.5L41.21 58.5208L41.21 58.5208L40.9609 58.5ZM44.9609 44C44.7771 43.8306 44.777 43.8306 44.777 43.8306C44.777 43.8306 44.777 43.8307 44.7769 43.8307C44.7768 43.8308 44.7767 43.8309 44.7766 43.8311C44.7763 43.8314 44.7758 43.8319 44.7753 43.8325C44.7741 43.8337 44.7725 43.8355 44.7704 43.8379C44.766 43.8426 44.7597 43.8495 44.7515 43.8585C44.735 43.8766 44.7108 43.9032 44.6798 43.9376C44.6178 44.0063 44.5285 44.1061 44.4189 44.2309C44.1998 44.4803 43.8991 44.83 43.5726 45.2311C42.9236 46.0285 42.158 47.0468 41.737 47.8881L42.1842 48.1119C42.5785 47.3237 43.313 46.342 43.9603 45.5467C44.282 45.1516 44.5785 44.8068 44.7946 44.5608C44.9026 44.4379 44.9904 44.3398 45.051 44.2725C45.0814 44.2389 45.1049 44.2129 45.1208 44.1955C45.1288 44.1868 45.1348 44.1802 45.1388 44.1758C45.1408 44.1736 45.1423 44.172 45.1433 44.1709C45.1438 44.1704 45.1442 44.17 45.1444 44.1698C45.1445 44.1696 45.1446 44.1695 45.1447 44.1695C45.1447 44.1695 45.1447 44.1695 45.1447 44.1694C45.1447 44.1694 45.1447 44.1694 44.9609 44ZM39.7109 69.5C39.7109 69.796 39.5915 70.0069 39.4055 70.157C39.212 70.313 38.9353 70.4104 38.6258 70.4385C38.3175 70.4665 37.9969 70.4239 37.7303 70.3214C37.461 70.2178 37.2723 70.0638 37.1845 69.8882L36.7373 70.1118C36.8995 70.4362 37.2108 70.6572 37.5508 70.788C37.8937 70.9199 38.2917 70.971 38.671 70.9365C39.049 70.9021 39.4286 70.7807 39.7194 70.5462C40.0177 70.3056 40.2109 69.954 40.2109 69.5H39.7109ZM37.1845 69.8882C37.1399 69.799 37.0823 69.5903 37.0201 69.2586C36.9599 68.9376 36.9 68.5292 36.8417 68.0627C36.7251 67.1303 36.6161 65.978 36.5224 64.8542C36.4287 63.731 36.3507 62.6387 36.296 61.827C36.2687 61.4212 36.2472 61.0856 36.2326 60.8516C36.2253 60.7346 36.2197 60.6429 36.2159 60.5806C36.214 60.5494 36.2126 60.5256 36.2116 60.5095C36.2111 60.5015 36.2108 60.4954 36.2105 60.4914C36.2104 60.4893 36.2103 60.4878 36.2103 60.4868C36.2102 60.4863 36.2102 60.4859 36.2102 60.4857C36.2102 60.4855 36.2102 60.4855 36.2102 60.4854C36.2102 60.4853 36.2102 60.4853 35.9606 60.5C35.711 60.5147 35.711 60.5147 35.711 60.5148C35.711 60.5149 35.7111 60.515 35.7111 60.5151C35.7111 60.5154 35.7111 60.5158 35.7111 60.5163C35.7112 60.5173 35.7113 60.5189 35.7114 60.521C35.7116 60.5251 35.712 60.5312 35.7125 60.5393C35.7135 60.5555 35.7149 60.5795 35.7168 60.6108C35.7206 60.6735 35.7262 60.7654 35.7336 60.8828C35.7482 61.1175 35.7698 61.4538 35.7971 61.8605C35.8519 62.6738 35.9302 63.769 36.0241 64.8958C36.118 66.022 36.2277 67.1822 36.3456 68.1248C36.4045 68.5958 36.4658 69.0155 36.5286 69.3508C36.5895 69.6753 36.6569 69.951 36.7373 70.1118L37.1845 69.8882ZM35.7522 60.3619L28.7916 70.8619L29.2083 71.1381L36.169 60.6381L35.7522 60.3619ZM25.4606 70.5C25.237 70.3882 25.237 70.3881 25.2371 70.388C25.2371 70.388 25.2371 70.388 25.2371 70.388C25.2371 70.388 25.2371 70.388 25.2371 70.3881C25.237 70.3882 25.2368 70.3885 25.2366 70.389C25.2361 70.39 25.2352 70.3917 25.234 70.3941C25.2315 70.3988 25.2277 70.4062 25.2225 70.416C25.212 70.4357 25.1961 70.4651 25.1748 70.5025C25.1324 70.5773 25.0691 70.6834 24.9869 70.8066C24.8217 71.0544 24.5848 71.3643 24.2932 71.6267C24.0002 71.8903 23.6675 72.0922 23.3098 72.1518C22.9621 72.2098 22.5614 72.1384 22.1102 71.8L21.8102 72.2C22.3591 72.6116 22.8959 72.7277 23.392 72.645C23.8782 72.564 24.2955 72.2972 24.6276 71.9983C24.9611 71.6982 25.2243 71.3518 25.4029 71.084C25.4927 70.9494 25.5622 70.8329 25.6096 70.7495C25.6333 70.7077 25.6515 70.6741 25.664 70.6506C25.6703 70.6388 25.6751 70.6296 25.6785 70.623C25.6802 70.6198 25.6815 70.6172 25.6824 70.6153C25.6829 70.6144 25.6833 70.6136 25.6836 70.613C25.6837 70.6127 25.6839 70.6125 25.684 70.6123C25.684 70.6122 25.6841 70.6121 25.6841 70.612C25.6841 70.6119 25.6842 70.6118 25.4606 70.5ZM22.1102 71.8C21.8772 71.6253 21.7658 71.344 21.7547 70.9674C21.7436 70.5889 21.8364 70.1497 21.9742 69.7207C22.1111 69.2948 22.2871 68.8951 22.4298 68.6006C22.5009 68.4537 22.5633 68.3339 22.6077 68.2513C22.6299 68.2099 22.6476 68.1779 22.6596 68.1565C22.6656 68.1458 22.6701 68.1377 22.6731 68.1324C22.6746 68.1298 22.6757 68.1279 22.6764 68.1267C22.6768 68.1261 22.677 68.1256 22.6772 68.1254C22.6772 68.1253 22.6773 68.1252 22.6773 68.1252C22.6773 68.1251 22.6773 68.1252 22.6773 68.1251C22.6773 68.1252 22.6773 68.1252 22.4609 68C22.2445 67.8748 22.2445 67.8749 22.2444 67.8749C22.2444 67.875 22.2444 67.875 22.2443 67.8751C22.2442 67.8753 22.2441 67.8755 22.244 67.8757C22.2437 67.8762 22.2433 67.8769 22.2428 67.8778C22.2418 67.8795 22.2404 67.882 22.2386 67.8851C22.235 67.8915 22.2298 67.9006 22.2231 67.9125C22.2099 67.9362 22.1909 67.9707 22.1672 68.0147C22.12 68.1026 22.0544 68.2286 21.9798 68.3826C21.831 68.6898 21.6446 69.1122 21.4982 69.5677C21.3528 70.0202 21.2414 70.5217 21.2549 70.9821C21.2685 71.4445 21.4108 71.9004 21.8102 72.2L22.1102 71.8ZM22.4609 68C22.3223 67.792 22.3223 67.7919 22.3224 67.7919C22.3224 67.7919 22.3225 67.7918 22.3225 67.7918C22.3226 67.7918 22.3226 67.7917 22.3226 67.7917C22.3226 67.7917 22.3226 67.7917 22.3224 67.7918C22.3221 67.792 22.3215 67.7925 22.3205 67.7931C22.3185 67.7944 22.3152 67.7965 22.3105 67.7995C22.3012 67.8054 22.2866 67.8144 22.2673 67.8258C22.2287 67.8486 22.1713 67.8809 22.099 67.917C21.9537 67.9896 21.7524 68.0756 21.5249 68.1325C21.0673 68.2468 20.5491 68.2354 20.137 67.8232L19.7834 68.1768C20.3713 68.7646 21.1034 68.7532 21.6462 68.6175C21.9189 68.5494 22.1553 68.4479 22.3226 68.3642C22.4066 68.3222 22.4743 68.2842 22.5216 68.2563C22.5453 68.2423 22.5639 68.2308 22.5771 68.2225C22.5836 68.2184 22.5888 68.215 22.5926 68.2126C22.5945 68.2114 22.596 68.2104 22.5972 68.2096C22.5977 68.2092 22.5982 68.2089 22.5986 68.2086C22.5988 68.2085 22.599 68.2084 22.5991 68.2083C22.5992 68.2082 22.5993 68.2082 22.5993 68.2082C22.5994 68.2081 22.5995 68.208 22.4609 68ZM20.137 67.8232C19.8523 67.5386 19.7671 67.1374 19.8343 66.6444C19.9018 66.1492 20.1198 65.5988 20.3919 65.0746C20.6624 64.5535 20.9781 64.0739 21.2274 63.7234C21.3518 63.5486 21.459 63.4067 21.5348 63.3089C21.5727 63.26 21.6028 63.2222 21.6231 63.1968C21.6333 63.1841 21.6411 63.1745 21.6463 63.1682C21.6488 63.165 21.6507 63.1627 21.652 63.1612C21.6526 63.1605 21.653 63.1599 21.6533 63.1596C21.6534 63.1595 21.6535 63.1594 21.6535 63.1593C21.6535 63.1593 21.6535 63.1593 21.6536 63.1593C21.6535 63.1593 21.6535 63.1593 21.4608 63C21.2682 62.8407 21.2681 62.8408 21.2681 62.8408C21.268 62.8409 21.268 62.8409 21.2679 62.841C21.2678 62.8412 21.2676 62.8414 21.2674 62.8417C21.2669 62.8422 21.2663 62.843 21.2655 62.844C21.2639 62.8459 21.2616 62.8487 21.2587 62.8523C21.2527 62.8596 21.2442 62.8701 21.2332 62.8839C21.2112 62.9113 21.1794 62.9513 21.1397 63.0025C21.0603 63.1049 20.9489 63.2524 20.8199 63.4336C20.5626 63.7954 20.2329 64.2956 19.9481 64.8443C19.6648 65.3899 19.4176 65.9994 19.3389 66.5768C19.2598 67.1565 19.3474 67.7407 19.7834 68.1768L20.137 67.8232ZM21.4608 63C21.349 62.7764 21.3491 62.7764 21.3492 62.7763C21.3492 62.7763 21.3492 62.7763 21.3492 62.7763C21.3492 62.7763 21.3492 62.7763 21.3492 62.7763C21.3491 62.7763 21.349 62.7764 21.3487 62.7766C21.3481 62.7769 21.347 62.7774 21.3454 62.7782C21.3424 62.7797 21.3375 62.782 21.3308 62.7852C21.3175 62.7915 21.2972 62.801 21.2707 62.8129C21.2176 62.8367 21.1398 62.8701 21.043 62.9073C20.8486 62.982 20.5815 63.0709 20.2868 63.1299C19.6796 63.2513 19.0438 63.2294 18.6376 62.8232L18.2841 63.1768C18.8779 63.7706 19.7421 63.7487 20.3849 63.6201C20.7152 63.5541 21.0106 63.4555 21.2225 63.374C21.3288 63.3331 21.415 63.2961 21.4752 63.2691C21.5053 63.2556 21.529 63.2446 21.5455 63.2368C21.5537 63.2329 21.5602 63.2297 21.5647 63.2275C21.567 63.2264 21.5688 63.2255 21.5701 63.2249C21.5708 63.2245 21.5713 63.2243 21.5718 63.2241C21.572 63.2239 21.5721 63.2239 21.5723 63.2238C21.5724 63.2237 21.5725 63.2237 21.5725 63.2237C21.5726 63.2236 21.5727 63.2236 21.4608 63ZM18.6376 62.8232C18.1123 62.2979 18.1893 61.5581 18.4651 60.8642C18.5995 60.5259 18.7729 60.2226 18.9139 60.0025C18.9842 59.8929 19.0457 59.8051 19.0893 59.7451C19.1111 59.7152 19.1283 59.6922 19.1399 59.6771C19.1457 59.6695 19.1501 59.6639 19.1528 59.6603C19.1542 59.6586 19.1552 59.6573 19.1558 59.6565C19.1561 59.6562 19.1563 59.6559 19.1564 59.6558C19.1564 59.6558 19.1564 59.6558 19.1564 59.6558C19.1564 59.6558 19.1564 59.6558 19.1564 59.6558C19.1564 59.6559 19.1563 59.6559 18.9609 59.5C18.7655 59.3441 18.7654 59.3442 18.7653 59.3442C18.7653 59.3443 18.7652 59.3444 18.7652 59.3444C18.7651 59.3446 18.7649 59.3448 18.7647 59.345C18.7644 59.3454 18.764 59.346 18.7634 59.3467C18.7623 59.3481 18.7608 59.35 18.7588 59.3525C18.755 59.3574 18.7495 59.3645 18.7426 59.3735C18.7288 59.3916 18.7092 59.4177 18.6849 59.4511C18.6364 59.5178 18.5692 59.6137 18.493 59.7327C18.3411 59.9696 18.1504 60.3022 18.0004 60.6796C17.7074 61.4169 17.5344 62.4271 18.2841 63.1768L18.6376 62.8232ZM19.1689 59.6387L25.1689 50.6387L24.7529 50.3613L18.7529 59.3613L19.1689 59.6387ZM24.9609 50.5C25.178 50.624 25.178 50.624 25.178 50.624C25.178 50.624 25.178 50.624 25.178 50.6239C25.178 50.6239 25.1781 50.6238 25.1781 50.6237C25.1782 50.6236 25.1784 50.6233 25.1786 50.6228C25.1791 50.622 25.1798 50.6207 25.1808 50.619C25.1828 50.6156 25.1857 50.6105 25.1896 50.6038C25.1974 50.5902 25.209 50.5701 25.2242 50.544C25.2546 50.4918 25.2991 50.4157 25.3556 50.3207C25.4685 50.1308 25.6289 49.8655 25.8185 49.5645C26.199 48.9606 26.6922 48.2212 27.1535 47.6585L26.7668 47.3415C26.2854 47.9288 25.7789 48.6894 25.3955 49.298C25.2031 49.6033 25.0404 49.8724 24.9258 50.0652C24.8685 50.1617 24.8231 50.2391 24.792 50.2926C24.7765 50.3193 24.7645 50.34 24.7564 50.3541C24.7523 50.3612 24.7492 50.3666 24.7471 50.3703C24.746 50.3721 24.7452 50.3735 24.7447 50.3745C24.7444 50.375 24.7442 50.3753 24.744 50.3756C24.744 50.3757 24.7439 50.3758 24.7439 50.3759C24.7439 50.3759 24.7438 50.376 24.7438 50.376C24.7438 50.376 24.7438 50.376 24.9609 50.5ZM27.1535 47.6585C27.8022 46.8672 28.5762 46.5203 29.4378 46.175C30.2942 45.8317 31.2432 45.4888 32.1286 44.6851L31.7926 44.3149C30.9857 45.0473 30.1265 45.3603 29.2518 45.7109C28.3822 46.0594 27.5022 46.4445 26.7668 47.3415L27.1535 47.6585ZM32.1286 44.6851C32.9702 43.9212 33.8624 42.5128 34.5346 41.3227C34.8735 40.7226 35.1614 40.169 35.3646 39.7654C35.4662 39.5636 35.5467 39.3991 35.6019 39.2849C35.6295 39.2278 35.6508 39.1833 35.6652 39.1529C35.6724 39.1377 35.6779 39.126 35.6816 39.1181C35.6835 39.1142 35.6849 39.1111 35.6859 39.1091C35.6863 39.108 35.6867 39.1073 35.687 39.1067C35.6871 39.1064 35.6872 39.1062 35.6873 39.1061C35.6873 39.106 35.6873 39.1059 35.6874 39.1059C35.6874 39.1058 35.6874 39.1058 35.4609 39C35.2344 38.8942 35.2344 38.8942 35.2344 38.8942C35.2344 38.8942 35.2344 38.8942 35.2343 38.8943C35.2343 38.8944 35.2342 38.8945 35.2341 38.8948C35.2339 38.8952 35.2336 38.8959 35.2332 38.8968C35.2323 38.8986 35.231 38.9014 35.2293 38.9051C35.2257 38.9126 35.2205 38.9237 35.2135 38.9384C35.1995 38.9678 35.1788 39.0113 35.1517 39.0674C35.0975 39.1794 35.0182 39.3415 34.918 39.5406C34.7174 39.9391 34.4333 40.4853 34.0992 41.0768C33.4254 42.2698 32.5675 43.6115 31.7926 44.3149L32.1286 44.6851ZM35.3445 39.2212L44.8445 44.2212L45.0773 43.7788L35.5773 38.7788L35.3445 39.2212ZM29 71C28.7823 70.8771 28.7823 70.877 28.7823 70.877C28.7823 70.877 28.7823 70.877 28.7823 70.877C28.7823 70.877 28.7823 70.8771 28.7822 70.8771C28.7821 70.8773 28.782 70.8776 28.7817 70.878C28.7812 70.8789 28.7804 70.8804 28.7792 70.8824C28.7769 70.8864 28.7734 70.8925 28.7686 70.9007C28.7591 70.917 28.7447 70.9413 28.7258 70.9724C28.688 71.0346 28.6324 71.1237 28.5619 71.2296C28.4205 71.4421 28.2213 71.7192 27.9882 71.9826C27.7531 72.248 27.4936 72.4879 27.2335 72.6376C26.9736 72.7872 26.7432 72.8306 26.5399 72.7628L26.3818 73.2372C26.7718 73.3672 27.1554 73.2594 27.4828 73.071C27.81 72.8828 28.1111 72.598 28.3625 72.314C28.6158 72.0279 28.8289 71.7309 28.9782 71.5066C29.053 71.3941 29.1124 71.2992 29.1532 71.2319C29.1736 71.1983 29.1895 71.1715 29.2003 71.1529C29.2057 71.1437 29.2099 71.1364 29.2128 71.1313C29.2143 71.1288 29.2154 71.1268 29.2162 71.1254C29.2166 71.1247 29.2169 71.1242 29.2172 71.1237C29.2173 71.1235 29.2174 71.1234 29.2175 71.1232C29.2175 71.1232 29.2176 71.1231 29.2176 71.123C29.2176 71.123 29.2176 71.1229 29 71ZM26.5399 72.7628C26.168 72.6389 25.942 72.4454 25.8022 72.2344C25.6599 72.0196 25.5959 71.7699 25.5783 71.5217C25.5606 71.2733 25.5901 71.0369 25.6252 70.8604C25.6426 70.7727 25.661 70.7015 25.6749 70.653C25.6818 70.6287 25.6875 70.6102 25.6914 70.5983C25.6933 70.5924 25.6947 70.5881 25.6956 70.5855C25.696 70.5843 25.6963 70.5834 25.6964 70.583C25.6965 70.5829 25.6965 70.5828 25.6965 70.5828C25.6965 70.5828 25.6965 70.5829 25.6964 70.5829C25.6964 70.583 25.6964 70.5831 25.6964 70.5831C25.6964 70.5832 25.6963 70.5833 25.4606 70.5C25.2249 70.4167 25.2248 70.4169 25.2248 70.417C25.2248 70.417 25.2247 70.4171 25.2247 70.4172C25.2246 70.4174 25.2246 70.4176 25.2245 70.4179C25.2243 70.4184 25.2241 70.419 25.2238 70.4198C25.2233 70.4213 25.2226 70.4232 25.2218 70.4256C25.2202 70.4304 25.218 70.4371 25.2153 70.4455C25.2099 70.4622 25.2026 70.486 25.1941 70.5158C25.177 70.5755 25.1552 70.6601 25.1348 70.7629C25.0941 70.9673 25.0577 71.2506 25.0795 71.5571C25.1013 71.8637 25.1822 72.2039 25.3854 72.5105C25.5911 72.8209 25.9113 73.0803 26.3818 73.2372L26.5399 72.7628ZM41.737 47.8881C41.6736 48.0149 41.6241 48.2085 41.5809 48.4317C41.5361 48.6629 41.4936 48.9524 41.4524 49.2879C41.3701 49.9593 41.2919 50.8289 41.2138 51.8128C41.057 53.7885 40.9011 56.2142 40.7118 58.4792L41.21 58.5208C41.3989 56.2622 41.5568 53.8097 41.7122 51.8524C41.7903 50.8697 41.8678 50.009 41.9487 49.3487C41.9892 49.0184 42.0302 48.7417 42.0718 48.5267C42.1149 48.3037 42.1545 48.1711 42.1842 48.1119L41.737 47.8881ZM40.7118 58.4792C40.4868 61.1701 40.2369 63.7146 40.0432 65.6896C39.8506 67.6532 39.7109 69.0763 39.7109 69.5H40.2109C40.2109 69.1085 40.346 67.7246 40.5408 65.7384C40.7345 63.7637 40.9847 61.2158 41.21 58.5208L40.7118 58.4792Z" fill="#F9CFAB"/>
<line x1="21.4442" y1="62.7953" x2="25.2953" y2="56.0558" stroke="#CFA07E" stroke-width="0.3" stroke-linecap="round"/>
<line x1="22.5438" y1="67.7953" x2="26.395" y2="61.0558" stroke="#CFA07E" stroke-width="0.3" stroke-linecap="round"/>
<line x1="25.4442" y1="70.7953" x2="29.2953" y2="64.0558" stroke="#CFA07E" stroke-width="0.3" stroke-linecap="round"/>
<path d="M49.6513 47.752C50.7288 49.2214 51.5 51 51.5 51L60.6261 46.0787C60.6261 46.0787 57.8985 42.5614 57.3311 40.4533C56.7371 38.2464 57.8154 36.637 56.9452 34.6348C56.3525 33.271 55.1891 31.4863 55.1891 31.4863L49.9215 22.0389C49.9215 22.0389 48.7524 19.4438 47.036 19.996C45.6897 20.4291 45.6662 22.665 45.6662 22.665C45.6662 22.665 43.8437 18.4227 41.903 19.047C40.5567 19.4801 40.7612 21.2717 40.7612 21.2717C40.7612 21.2717 38.8527 18.3078 37.4311 19C35.1834 20.0944 37.1674 22.799 37.1674 22.799C37.1674 22.799 35.7554 21.3049 34.4865 22.5475C33.5929 23.4225 35.1065 25.7196 35.1065 25.7196L41.2699 36.7066C41.2699 36.7066 33.4793 33.2706 32.3613 33.2589C31.2433 33.2471 30.1018 35.4713 31.4363 36.1562C32.1617 36.5284 36.1801 39.2085 40.7662 42.0684C44.6181 44.4704 49.1594 47.0813 49.6513 47.752Z" fill="#BB8862"/>
<path d="M51.5 51L51.2706 51.0994C51.2985 51.1637 51.352 51.2133 51.4181 51.2362C51.4843 51.2591 51.557 51.2533 51.6187 51.22L51.5 51ZM49.6513 47.752L49.8529 47.6042L49.8529 47.6042L49.6513 47.752ZM41.2699 36.7066L41.169 36.9353C41.2675 36.9787 41.3826 36.9543 41.455 36.8747C41.5273 36.795 41.5406 36.6781 41.488 36.5843L41.2699 36.7066ZM35.1065 25.7196L35.3245 25.5973L35.3202 25.5895L35.3153 25.5821L35.1065 25.7196ZM37.1674 22.799L36.9857 22.9707C37.0764 23.0667 37.2261 23.0756 37.3275 22.9911C37.4289 22.9065 37.4471 22.7576 37.369 22.6512L37.1674 22.799ZM37.4311 19L37.3217 18.7752L37.3217 18.7752L37.4311 19ZM40.7612 21.2717L40.551 21.4071C40.6139 21.5048 40.7358 21.5463 40.8453 21.5072C40.9547 21.4681 41.0228 21.3588 41.0096 21.2434L40.7612 21.2717ZM41.903 19.047L41.8264 18.809L41.8264 18.809L41.903 19.047ZM45.6662 22.665L45.4365 22.7637C45.4832 22.8723 45.5994 22.9333 45.7153 22.9101C45.8312 22.8869 45.915 22.7858 45.9162 22.6676L45.6662 22.665ZM47.036 19.996L46.9594 19.758L46.9594 19.758L47.036 19.996ZM49.9215 22.0389L49.6936 22.1416L49.698 22.1513L49.7032 22.1607L49.9215 22.0389ZM55.1891 31.4863L54.9707 31.6081L54.9749 31.6156L54.9796 31.6228L55.1891 31.4863ZM56.9452 34.6348L56.716 34.7345L56.716 34.7345L56.9452 34.6348ZM57.3311 40.4533L57.5725 40.3884L57.5725 40.3884L57.3311 40.4533ZM60.6261 46.0787L60.7448 46.2988C60.8095 46.2639 60.8555 46.2023 60.8707 46.1304C60.8859 46.0585 60.8687 45.9836 60.8237 45.9255L60.6261 46.0787ZM34.4865 22.5475L34.3116 22.3689L34.3116 22.3689L34.4865 22.5475ZM40.7662 42.0684L40.6339 42.2805L40.6339 42.2805L40.7662 42.0684ZM51.5 51C51.7294 50.9006 51.7294 50.9005 51.7293 50.9005C51.7293 50.9005 51.7293 50.9004 51.7293 50.9004C51.7293 50.9003 51.7292 50.9002 51.7291 50.9C51.729 50.8998 51.7289 50.8994 51.7286 50.8989C51.7282 50.8979 51.7276 50.8965 51.7268 50.8946C51.7252 50.891 51.7228 50.8856 51.7198 50.8787C51.7136 50.8648 51.7046 50.8444 51.6927 50.8181C51.669 50.7654 51.6341 50.689 51.5889 50.5928C51.4986 50.4005 51.367 50.1292 51.2014 49.8115C50.8709 49.1773 50.4021 48.3531 49.8529 47.6042L49.4497 47.8999C49.978 48.6203 50.4336 49.42 50.758 50.0426C50.9199 50.3532 51.0485 50.6183 51.1364 50.8054C51.1804 50.899 51.2141 50.973 51.2368 51.0233C51.2481 51.0485 51.2567 51.0678 51.2624 51.0807C51.2652 51.0871 51.2673 51.0919 51.2687 51.0951C51.2694 51.0966 51.2699 51.0978 51.2702 51.0985C51.2704 51.0989 51.2705 51.0992 51.2706 51.0993C51.2706 51.0994 51.2706 51.0994 51.2706 51.0995C51.2706 51.0995 51.2706 51.0995 51.2706 51.0995C51.2706 51.0995 51.2706 51.0994 51.5 51ZM31.5505 35.9338C31.2871 35.7986 31.154 35.5961 31.1054 35.3621C31.0549 35.1187 31.0947 34.8281 31.211 34.5398C31.3268 34.2528 31.5112 33.987 31.7241 33.7967C31.9392 33.6043 32.1623 33.5068 32.3587 33.5089L32.3639 33.0089C32.0012 33.0051 31.6624 33.1811 31.3908 33.4239C31.117 33.6687 30.8898 33.9996 30.7473 34.3527C30.6053 34.7047 30.54 35.0978 30.6159 35.4637C30.6937 35.8389 30.9183 36.1713 31.3222 36.3786L31.5505 35.9338ZM32.3587 33.5089C32.4584 33.5099 32.6703 33.5539 32.9939 33.65C33.3069 33.743 33.6976 33.8763 34.1392 34.0374C35.022 34.3594 36.097 34.7885 37.1396 35.2183C38.1816 35.6478 39.1891 36.0771 39.9362 36.3991C40.3097 36.5601 40.618 36.6942 40.8329 36.788C40.9404 36.8349 41.0245 36.8718 41.0817 36.8969C41.1103 36.9094 41.1321 36.9191 41.1468 36.9255C41.1542 36.9288 41.1598 36.9312 41.1635 36.9329C41.1653 36.9337 41.1667 36.9343 41.1677 36.9347C41.1681 36.9349 41.1685 36.9351 41.1687 36.9352C41.1688 36.9352 41.1689 36.9352 41.169 36.9353C41.169 36.9353 41.169 36.9353 41.2699 36.7066C41.3708 36.4778 41.3708 36.4778 41.3707 36.4778C41.3706 36.4778 41.3705 36.4777 41.3704 36.4777C41.3702 36.4775 41.3698 36.4774 41.3693 36.4772C41.3684 36.4768 41.367 36.4761 41.3651 36.4753C41.3613 36.4736 41.3557 36.4711 41.3482 36.4679C41.3334 36.4614 41.3114 36.4517 41.2826 36.4391C41.2252 36.4138 41.1408 36.3768 41.033 36.3298C40.8175 36.2357 40.5084 36.1013 40.1341 35.9399C39.3855 35.6173 38.3755 35.1869 37.3301 34.756C36.2853 34.3253 35.203 33.8932 34.3106 33.5677C33.8646 33.405 33.4632 33.2679 33.1363 33.1707C32.8197 33.0767 32.5436 33.0108 32.3639 33.0089L32.3587 33.5089ZM41.488 36.5843L35.3245 25.5973L34.8885 25.8419L41.0519 36.8289L41.488 36.5843ZM37.1674 22.799C37.369 22.6512 37.369 22.6512 37.3691 22.6513C37.3691 22.6513 37.3691 22.6513 37.3691 22.6513C37.3691 22.6514 37.3691 22.6513 37.369 22.6513C37.3689 22.6511 37.3687 22.6508 37.3684 22.6504C37.3677 22.6495 37.3666 22.6479 37.3651 22.6458C37.362 22.6415 37.3572 22.6347 37.3508 22.6255C37.3381 22.6072 37.3192 22.5796 37.2956 22.5437C37.2485 22.4717 37.183 22.3669 37.1109 22.2376C36.9658 21.9774 36.7984 21.6252 36.6981 21.246C36.5973 20.865 36.5695 20.4767 36.6798 20.1313C36.787 19.7955 37.0335 19.4716 37.5406 19.2247L37.3217 18.7752C36.7048 19.0755 36.3565 19.5001 36.2035 19.9793C36.0536 20.4488 36.1004 20.9419 36.2147 21.3738C36.3294 21.8076 36.5174 22.1999 36.6741 22.4811C36.7529 22.6224 36.8248 22.7375 36.8774 22.8177C36.9037 22.8579 36.9253 22.8894 36.9405 22.9113C36.9481 22.9222 36.9542 22.9307 36.9584 22.9367C36.9606 22.9397 36.9623 22.9421 36.9635 22.9438C36.9641 22.9446 36.9646 22.9453 36.965 22.9458C36.9652 22.9461 36.9654 22.9463 36.9655 22.9465C36.9656 22.9466 36.9656 22.9467 36.9657 22.9467C36.9657 22.9468 36.9658 22.9469 37.1674 22.799ZM37.5406 19.2247C37.8024 19.0972 38.1035 19.1265 38.4436 19.2886C38.7854 19.4515 39.1339 19.7346 39.4525 20.0531C39.7689 20.3693 40.0442 20.7084 40.2411 20.9698C40.3393 21.1002 40.4173 21.2104 40.4706 21.2877C40.4973 21.3263 40.5177 21.3566 40.5313 21.3771C40.5381 21.3873 40.5432 21.395 40.5465 21.4001C40.5481 21.4027 40.5494 21.4045 40.5501 21.4057C40.5505 21.4063 40.5508 21.4067 40.5509 21.4069C40.551 21.407 40.551 21.4071 40.5511 21.4071C40.5511 21.4072 40.5511 21.4071 40.5511 21.4072C40.5511 21.4071 40.551 21.4071 40.7612 21.2717C40.9714 21.1364 40.9714 21.1363 40.9713 21.1363C40.9713 21.1362 40.9713 21.1362 40.9712 21.1361C40.9711 21.1359 40.971 21.1357 40.9708 21.1355C40.9705 21.135 40.9701 21.1344 40.9695 21.1335C40.9685 21.1318 40.9669 21.1295 40.9649 21.1264C40.9609 21.1203 40.9551 21.1115 40.9476 21.1002C40.9326 21.0776 40.9106 21.0449 40.8822 21.0038C40.8256 20.9217 40.7435 20.8057 40.6405 20.669C40.4351 20.3964 40.1444 20.0377 39.806 19.6995C39.4698 19.3635 39.0746 19.0354 38.6587 18.8372C38.2411 18.6382 37.7706 18.5566 37.3217 18.7752L37.5406 19.2247ZM40.7612 21.2717C41.0096 21.2434 41.0096 21.2435 41.0096 21.2436C41.0096 21.2436 41.0096 21.2437 41.0096 21.2437C41.0097 21.2438 41.0097 21.2438 41.0097 21.2438C41.0097 21.2439 41.0097 21.2438 41.0096 21.2436C41.0096 21.2433 41.0095 21.2425 41.0094 21.2413C41.0092 21.239 41.0088 21.235 41.0083 21.2295C41.0073 21.2185 41.006 21.2015 41.0046 21.1791C41.002 21.1343 40.9994 21.0685 41.0003 20.9877C41.002 20.8252 41.0175 20.6069 41.0707 20.3786C41.1779 19.9192 41.4247 19.4634 41.9796 19.285L41.8264 18.809C41.035 19.0636 40.7109 19.7202 40.5838 20.265C40.5199 20.5387 40.5023 20.7954 40.5003 20.9824C40.4993 21.0763 40.5022 21.1539 40.5055 21.2087C40.5071 21.2362 40.5089 21.2581 40.5102 21.2735C40.5109 21.2813 40.5115 21.2874 40.512 21.2919C40.5122 21.2941 40.5124 21.2959 40.5125 21.2973C40.5126 21.298 40.5127 21.2985 40.5127 21.299C40.5127 21.2993 40.5128 21.2995 40.5128 21.2996C40.5128 21.2997 40.5128 21.2998 40.5128 21.2999C40.5128 21.3 40.5128 21.3001 40.7612 21.2717ZM41.9796 19.285C42.3628 19.1617 42.7587 19.269 43.1666 19.5539C43.5763 19.84 43.9665 20.2853 44.3086 20.7667C44.6487 21.2453 44.9312 21.7452 45.1292 22.127C45.228 22.3175 45.3052 22.4776 45.3576 22.5898C45.3838 22.6458 45.4037 22.6898 45.417 22.7195C45.4237 22.7344 45.4287 22.7457 45.4319 22.7532C45.4336 22.7569 45.4348 22.7596 45.4355 22.7614C45.4359 22.7623 45.4362 22.7629 45.4364 22.7633C45.4364 22.7635 45.4365 22.7636 45.4365 22.7637C45.4365 22.7637 45.4365 22.7637 45.4365 22.7637C45.4365 22.7637 45.4365 22.7637 45.6662 22.665C45.8959 22.5663 45.8959 22.5663 45.8958 22.5662C45.8958 22.5661 45.8958 22.566 45.8957 22.5659C45.8957 22.5657 45.8955 22.5655 45.8954 22.5652C45.8951 22.5645 45.8947 22.5636 45.8942 22.5624C45.8932 22.5601 45.8918 22.5568 45.8899 22.5525C45.8862 22.544 45.8807 22.5315 45.8735 22.5155C45.8592 22.4834 45.838 22.4368 45.8106 22.3781C45.7557 22.2607 45.6755 22.0943 45.573 21.8968C45.3687 21.5027 45.0742 20.981 44.7161 20.4771C44.36 19.9759 43.9307 19.4777 43.4529 19.144C42.9732 18.809 42.4135 18.6201 41.8264 18.809L41.9796 19.285ZM45.6662 22.665C45.9162 22.6676 45.9162 22.6677 45.9162 22.6678C45.9162 22.6678 45.9162 22.6678 45.9162 22.6678C45.9162 22.6679 45.9162 22.6678 45.9162 22.6678C45.9162 22.6677 45.9162 22.6675 45.9162 22.6672C45.9162 22.6665 45.9162 22.6653 45.9163 22.6636C45.9163 22.6602 45.9165 22.6547 45.9167 22.6474C45.9171 22.6326 45.918 22.6103 45.9195 22.5813C45.9226 22.5232 45.9284 22.4387 45.9395 22.3356C45.9617 22.1285 46.0046 21.8502 46.0867 21.5612C46.2559 20.9655 46.5658 20.4099 47.1126 20.234L46.9594 19.758C46.16 20.0152 45.7849 20.794 45.6058 21.4246C45.5137 21.7487 45.4666 22.0564 45.4424 22.2822C45.4302 22.3954 45.4237 22.489 45.4202 22.5549C45.4185 22.5879 45.4175 22.614 45.4169 22.6322C45.4166 22.6413 45.4165 22.6485 45.4164 22.6535C45.4163 22.6561 45.4163 22.6581 45.4163 22.6596C45.4163 22.6603 45.4162 22.6609 45.4162 22.6614C45.4162 22.6616 45.4162 22.6618 45.4162 22.662C45.4162 22.6621 45.4162 22.6622 45.4162 22.6622C45.4162 22.6623 45.4162 22.6624 45.6662 22.665ZM47.1126 20.234C47.8197 20.0065 48.4428 20.4128 48.9342 20.9749C49.1738 21.249 49.3645 21.5417 49.4959 21.7677C49.5613 21.8802 49.6114 21.9751 49.6448 22.0413C49.6615 22.0743 49.6741 22.1001 49.6823 22.1173C49.6863 22.1259 49.6894 22.1324 49.6913 22.1365C49.6922 22.1385 49.6929 22.14 49.6933 22.1409C49.6935 22.1413 49.6936 22.1416 49.6936 22.1417C49.6937 22.1418 49.6937 22.1418 49.6937 22.1418C49.6937 22.1418 49.6937 22.1417 49.6937 22.1417C49.6936 22.1417 49.6936 22.1416 49.9215 22.0389C50.1495 21.9362 50.1494 21.9362 50.1494 21.9361C50.1494 21.936 50.1493 21.9359 50.1493 21.9358C50.1492 21.9357 50.1491 21.9354 50.149 21.9352C50.1488 21.9347 50.1485 21.934 50.1481 21.9332C50.1474 21.9316 50.1463 21.9293 50.145 21.9265C50.1424 21.9208 50.1386 21.9128 50.1337 21.9025C50.124 21.8819 50.1097 21.8525 50.0911 21.8157C50.0539 21.7421 49.9992 21.6385 49.9282 21.5164C49.7867 21.2731 49.5779 20.9515 49.3107 20.6458C48.7884 20.0485 47.9687 19.4333 46.9594 19.758L47.1126 20.234ZM49.7032 22.1607L54.9707 31.6081L55.4074 31.3646L50.1399 21.9172L49.7032 22.1607ZM55.1891 31.4863C54.9796 31.6228 54.9796 31.6228 54.9796 31.6228C54.9796 31.6228 54.9797 31.6229 54.9797 31.6229C54.9797 31.6229 54.9797 31.623 54.9798 31.6231C54.9799 31.6233 54.9801 31.6235 54.9804 31.6239C54.9809 31.6247 54.9817 31.626 54.9827 31.6276C54.9849 31.6309 54.9881 31.6359 54.9923 31.6424C55.0008 31.6555 55.0134 31.6751 55.0297 31.7005C55.0623 31.7514 55.1096 31.8258 55.1683 31.9193C55.2858 32.1065 55.4486 32.3704 55.6297 32.6764C55.9933 33.2907 56.4259 34.0671 56.716 34.7345L57.1745 34.5352C56.8718 33.8386 56.4264 33.0408 56.06 32.4218C55.8762 32.1112 55.7111 31.8436 55.5919 31.6536C55.5323 31.5586 55.4841 31.4829 55.4507 31.4308C55.434 31.4048 55.4211 31.3846 55.4122 31.371C55.4078 31.3641 55.4044 31.3589 55.4021 31.3553C55.401 31.3536 55.4001 31.3522 55.3995 31.3513C55.3992 31.3508 55.3989 31.3505 55.3988 31.3502C55.3987 31.3501 55.3986 31.35 55.3986 31.3499C55.3986 31.3499 55.3985 31.3498 55.3985 31.3498C55.3985 31.3498 55.3985 31.3498 55.1891 31.4863ZM56.716 34.7345C57.1238 35.6729 57.079 36.5199 56.9928 37.4441C56.9072 38.3628 56.7789 39.3636 57.0897 40.5183L57.5725 40.3884C57.2893 39.3361 57.4032 38.4288 57.4906 37.4905C57.5776 36.5577 57.6368 35.5989 57.1745 34.5352L56.716 34.7345ZM57.0897 40.5183C57.3851 41.6158 58.2307 43.0526 58.9826 44.1941C59.3618 44.7697 59.7228 45.2786 59.9891 45.6435C60.1223 45.8261 60.2318 45.9728 60.3083 46.0741C60.3465 46.1247 60.3764 46.164 60.3968 46.1907C60.4071 46.204 60.4149 46.2142 60.4203 46.2212C60.4229 46.2246 60.425 46.2273 60.4264 46.2291C60.4271 46.23 60.4276 46.2307 60.428 46.2311C60.4281 46.2314 60.4283 46.2316 60.4284 46.2317C60.4284 46.2318 60.4285 46.2318 60.4285 46.2318C60.4285 46.2319 60.4286 46.2319 60.6261 46.0787C60.8237 45.9255 60.8237 45.9255 60.8237 45.9255C60.8237 45.9255 60.8236 45.9255 60.8236 45.9254C60.8235 45.9253 60.8234 45.9252 60.8233 45.925C60.823 45.9246 60.8225 45.9241 60.8219 45.9233C60.8207 45.9217 60.8188 45.9192 60.8163 45.916C60.8113 45.9095 60.8038 45.8997 60.7939 45.8867C60.7741 45.8609 60.7448 45.8225 60.7074 45.7729C60.6324 45.6735 60.5244 45.529 60.393 45.3489C60.1301 44.9885 59.7738 44.4863 59.4002 43.919C58.6464 42.7748 57.8445 41.3989 57.5725 40.3884L57.0897 40.5183ZM60.5075 45.8587L51.3813 50.78L51.6187 51.22L60.7448 46.2988L60.5075 45.8587ZM35.1065 25.7196C35.3153 25.5821 35.3153 25.5821 35.3153 25.5821C35.3153 25.5821 35.3153 25.5821 35.3153 25.5821C35.3153 25.5821 35.3153 25.5821 35.3152 25.582C35.3151 25.5819 35.3149 25.5816 35.3147 25.5811C35.3141 25.5803 35.3132 25.5789 35.3119 25.577C35.3094 25.5731 35.3056 25.5671 35.3005 25.5592C35.2903 25.5432 35.2753 25.5193 35.2562 25.4883C35.2181 25.4263 35.1643 25.3362 35.1022 25.2251C34.9777 25.0022 34.8221 24.6985 34.6943 24.3708C34.5655 24.0405 34.4705 23.7001 34.4561 23.4003C34.4417 23.1008 34.5083 22.876 34.6614 22.7261L34.3116 22.3689C34.0178 22.6565 33.9386 23.047 33.9567 23.4243C33.9748 23.8012 34.0907 24.1992 34.2285 24.5525C34.3674 24.9085 34.5343 25.2338 34.6657 25.4689C34.7316 25.5869 34.789 25.683 34.8302 25.7501C34.8508 25.7836 34.8674 25.8099 34.879 25.828C34.8847 25.8371 34.8893 25.8442 34.8925 25.849C34.894 25.8515 34.8953 25.8534 34.8962 25.8548C34.8966 25.8554 34.897 25.856 34.8972 25.8564C34.8974 25.8566 34.8975 25.8568 34.8976 25.8569C34.8976 25.8569 34.8977 25.857 34.8977 25.8571C34.8977 25.8571 34.8978 25.8572 35.1065 25.7196ZM34.6614 22.7261C34.9415 22.4518 35.2168 22.3391 35.4684 22.311C35.7245 22.2825 35.9758 22.3396 36.2047 22.4373C36.4337 22.5349 36.6306 22.6691 36.7716 22.7809C36.8416 22.8364 36.8966 22.8854 36.9335 22.9199C36.9519 22.9371 36.9657 22.9506 36.9745 22.9594C36.979 22.9639 36.9821 22.9671 36.984 22.969C36.9849 22.97 36.9856 22.9706 36.9858 22.9709C36.986 22.9711 36.986 22.9711 36.986 22.9711C36.986 22.9711 36.986 22.971 36.9859 22.971C36.9859 22.971 36.9858 22.9709 36.9858 22.9709C36.9858 22.9708 36.9857 22.9707 37.1674 22.799C37.3491 22.6273 37.349 22.6272 37.3489 22.6272C37.3489 22.6271 37.3488 22.627 37.3487 22.627C37.3486 22.6268 37.3484 22.6266 37.3482 22.6264C37.3479 22.6261 37.3474 22.6256 37.3469 22.625C37.3458 22.6239 37.3444 22.6224 37.3426 22.6206C37.339 22.6169 37.3341 22.6119 37.3279 22.6057C37.3154 22.5932 37.2977 22.5759 37.275 22.5547C37.2297 22.5123 37.1644 22.4542 37.0823 22.3891C36.9189 22.2596 36.6835 22.0979 36.4009 21.9773C36.1182 21.8568 35.7786 21.7734 35.413 21.8141C35.043 21.8554 34.6659 22.0219 34.3116 22.3689L34.6614 22.7261ZM49.8529 47.6042C49.7691 47.4899 49.6195 47.3574 49.4406 47.2171C49.2554 47.0717 49.0173 46.9017 48.7375 46.7119C48.1778 46.3321 47.4398 45.8655 46.6002 45.3467C44.914 44.3051 42.8271 43.0589 40.8985 41.8562L40.6339 42.2805C42.5572 43.4798 44.6669 44.7401 46.3374 45.7721C47.176 46.2902 47.9064 46.7522 48.4568 47.1256C48.7322 47.3125 48.9597 47.4752 49.132 47.6104C49.3106 47.7506 49.4105 47.8465 49.4497 47.8999L49.8529 47.6042ZM40.8985 41.8562C38.6071 40.4274 36.4574 39.0433 34.7888 37.9692C33.1298 36.9013 31.9275 36.1272 31.5505 35.9338L31.3222 36.3786C31.6705 36.5574 32.8401 37.3095 34.5181 38.3897C36.1865 39.4636 38.3391 40.8495 40.6339 42.2805L40.8985 41.8562Z" fill="#BB8862"/>
<line x1="45.856" y1="22.7437" x2="50.0936" y2="29.2472" stroke="#90613F" stroke-width="0.3" stroke-linecap="round"/>
<line x1="40.9058" y1="21.4391" x2="45.1434" y2="27.9426" stroke="#90613F" stroke-width="0.3" stroke-linecap="round"/>
<line x1="36.9117" y1="22.6495" x2="41.1493" y2="29.153" stroke="#90613F" stroke-width="0.3" stroke-linecap="round"/>
</svg>
