<svg width="102" height="87" viewBox="0 0 102 87" fill="none" xmlns="http://www.w3.org/2000/svg">
<path fill-rule="evenodd" clip-rule="evenodd" d="M0 73.4121C15.2773 65.8633 22.9158 56.9935 22.9158 46.8026C16.4042 46.0477 11.0197 43.3742 6.76205 38.782C2.50444 34.1898 0.375671 28.8742 0.375671 22.8351C0.375671 16.4186 2.44183 11.0087 6.57422 6.6052C10.7066 2.20171 15.9033 0 22.1645 0C29.177 0 35.2503 2.86223 40.3845 8.58677C45.5187 14.3113 48.0857 21.2624 48.0857 29.4403C48.0857 53.9741 34.4365 73.1605 7.13773 87L0 73.4121ZM53.9143 73.4121C69.3168 65.8633 77.018 56.9935 77.018 46.8026C70.3811 46.0477 64.9339 43.3742 60.6763 38.782C56.4187 34.1898 54.29 28.8742 54.29 22.8351C54.29 16.4186 56.3874 11.0087 60.5824 6.6052C64.7774 2.20171 70.0054 0 76.2666 0C83.2792 0 89.3211 2.86223 94.3927 8.58677C99.4643 14.3113 102 21.2624 102 29.4403C102 53.9741 88.4134 73.1605 61.2398 87L53.9143 73.4121Z" fill="#C281ED"/>
</svg>
