<svg width="29" height="29" viewBox="0 0 29 29" fill="none" xmlns="http://www.w3.org/2000/svg">
<path d="M14.488 2.41675C7.818 2.41675 2.41675 7.83008 2.41675 14.5001C2.41675 21.1701 7.818 26.5834 14.488 26.5834C21.1701 26.5834 26.5834 21.1701 26.5834 14.5001C26.5834 7.83008 21.1701 2.41675 14.488 2.41675ZM14.5001 24.1668C9.15925 24.1668 4.83342 19.8409 4.83342 14.5001C4.83342 9.15925 9.15925 4.83342 14.5001 4.83342C19.8409 4.83342 24.1668 9.15925 24.1668 14.5001C24.1668 19.8409 19.8409 24.1668 14.5001 24.1668Z" fill="white"/>
<path d="M15.1042 8.45825H13.2917V15.7083L19.6355 19.5145L20.5417 18.0283L15.1042 14.802V8.45825Z" fill="white"/>
</svg>
