<svg width="20" height="20" viewBox="0 0 20 20" fill="none" xmlns="http://www.w3.org/2000/svg">
<path id="Subtract" fill-rule="evenodd" clip-rule="evenodd" d="M10 20C15.5228 20 20 15.5228 20 10C20 4.47715 15.5228 0 10 0C4.47715 0 0 4.47715 0 10C0 15.5228 4.47715 20 10 20ZM15 8.05232C15 7.34685 14.6296 7 13.8948 7H6.10523C5.37037 7 5 7.34685 5 8.05232V13.0024C5 13.7019 5.37037 14.0547 6.10523 14.0547H13.8948C14.6296 14.0547 15 13.7019 15 13.0024V8.05232ZM13.9594 8.80482L9.99706 12.0559L6.04056 8.80482C5.89947 8.68724 5.78777 8.41681 5.96414 8.17578C6.13463 7.93474 6.44621 7.92887 6.65197 8.07584L9.99706 10.3451L13.348 8.07584C13.5538 7.92887 13.8654 7.93474 14.0359 8.17578C14.2122 8.41681 14.1005 8.68724 13.9594 8.80482Z" fill="#C281ED"/>
</svg>
