<svg width="23" height="23" viewBox="0 0 23 23" fill="none" xmlns="http://www.w3.org/2000/svg">
<path d="M22.08 0H0.92C0.411125 0 0 0.411125 0 0.92V22.08C0 22.5889 0.411125 23 0.92 23H22.08C22.5889 23 23 22.5889 23 22.08V0.92C23 0.411125 22.5889 0 22.08 0ZM21.16 21.16H15.8671V14.0933H18.8571L19.3056 10.6231H15.8671V8.4065C15.8671 7.40025 16.146 6.716 17.5864 6.716H19.4235V3.611C19.1044 3.56788 18.0148 3.473 16.744 3.473C14.0933 3.473 12.2791 5.09162 12.2791 8.0615V10.6202H9.28337V14.0904H12.282V21.16H1.84V1.84H21.16V21.16Z" fill="#98989E"/>
</svg>
