<svg width="20" height="20" viewBox="0 0 20 20" fill="none" xmlns="http://www.w3.org/2000/svg">
<path id="Subtract" fill-rule="evenodd" clip-rule="evenodd" d="M10 20C15.5228 20 20 15.5228 20 10C20 4.47717 15.5228 0 10 0C4.47714 0 0 4.47717 0 10C0 15.5228 4.47714 20 10 20ZM10.37 10.4459V15H8.52969V10.4426H7V8.65955H8.52634V7.35101C8.52634 5.8291 9.45871 5.00012 10.8167 5.00012C11.2746 4.99829 11.7322 5.02185 12.1875 5.07068V6.66034H11.2518C10.5133 6.66034 10.37 7.01263 10.37 7.52716V8.6629H12.1347L11.9063 10.4459H10.37Z" fill="#C281ED"/>
</svg>
