<svg width="20" height="20" viewBox="0 0 20 20" fill="none" xmlns="http://www.w3.org/2000/svg">
<path id="Subtract" fill-rule="evenodd" clip-rule="evenodd" d="M10 20C15.5228 20 20 15.5228 20 10C20 4.47715 15.5228 0 10 0C4.47715 0 0 4.47715 0 10C0 15.5228 4.47715 20 10 20ZM8.33131 10C8.33131 9.08188 9.08055 8.33262 9.99866 8.33262C10.9168 8.33262 11.666 9.08188 11.666 10C11.666 10.9181 10.9168 11.6674 9.99866 11.6674C9.08055 11.6674 8.33131 10.9181 8.33131 10ZM14.9996 9.74743C14.9995 9.83154 14.9994 9.91572 14.9994 10C14.9994 10.0942 14.9996 10.1884 14.9997 10.2824C15.0006 10.8773 15.0015 11.4688 14.9669 12.0639C14.9281 12.8644 14.7468 13.5737 14.1601 14.1603C13.5748 14.7457 12.8643 14.9283 12.0638 14.9671C11.4587 15.0011 10.8574 15.0005 10.2524 14.9998C10.1683 14.9997 10.0842 14.9996 9.99991 14.9996C9.91581 14.9996 9.83179 14.9997 9.74783 14.9998C9.14365 15.0005 8.54226 15.0012 7.93605 14.9671C7.13553 14.9283 6.42631 14.747 5.83967 14.1603C5.25429 13.5749 5.07167 12.8644 5.03289 12.0639C4.99885 11.4588 4.99952 10.8565 5.00019 10.2521C5.00028 10.1681 5.00037 10.0841 5.00037 10C5.00037 9.91589 5.00028 9.83186 5.00019 9.74789C4.99952 9.1437 4.99885 8.54231 5.03289 7.93611C5.07167 7.13556 5.25304 6.42634 5.83967 5.83969C6.42506 5.25429 7.13553 5.07167 7.93605 5.03289C8.54113 4.99885 9.14236 4.99952 9.74734 5.00019C9.83145 5.00028 9.91563 5.00037 9.99991 5.00037C10.084 5.00037 10.168 5.00028 10.252 5.00019C10.8562 4.99952 11.4576 4.99885 12.0638 5.03289C12.8643 5.07167 13.5735 5.25304 14.1601 5.83969C14.7455 6.42508 14.9281 7.13556 14.9669 7.93611C15.001 8.5412 15.0003 9.14243 14.9996 9.74743ZM7.43322 10C7.43322 11.4197 8.57897 12.5655 9.99866 12.5655C11.4183 12.5655 12.5641 11.4197 12.5641 10C12.5641 8.58029 11.4183 7.43452 9.99866 7.43452C8.57897 7.43452 7.43322 8.58029 7.43322 10ZM12.07 7.32945C12.07 7.66092 12.3377 7.9286 12.6692 7.9286C12.7479 7.9287 12.8258 7.91327 12.8986 7.88319C12.9713 7.85312 13.0374 7.80899 13.093 7.75333C13.1487 7.69768 13.1928 7.63159 13.2229 7.55885C13.253 7.48611 13.2684 7.40816 13.2683 7.32945C13.2683 6.99797 13.0006 6.73029 12.6692 6.73029C12.3377 6.73029 12.07 6.99797 12.07 7.32945Z" fill="#C281ED"/>
</svg>
