<svg width="20" height="20" viewBox="0 0 20 20" fill="none" xmlns="http://www.w3.org/2000/svg">
<path id="Subtract" fill-rule="evenodd" clip-rule="evenodd" d="M10 20C15.5229 20 20 15.5228 20 10C20 4.47717 15.5229 0 10 0C4.47714 0 0 4.47717 0 10C0 15.5228 4.47714 20 10 20ZM12.5345 10.7585L14.8163 12.8333C14.9245 12.9313 14.9901 13.0679 14.999 13.2137C15.0079 13.3594 14.9594 13.5029 14.864 13.6135L13.8199 14.8322C13.723 14.9296 13.5934 14.9879 13.4562 14.9955C13.4449 14.9962 13.4148 14.9977 13.3675 14.9988C13.3369 14.9995 13.2991 15 13.2546 15C12.4789 15 9.66208 14.8355 7.41336 12.5874C4.83569 10.0086 4.99622 6.68439 5.00464 6.54407C5.01245 6.4068 5.07037 6.27716 5.16745 6.17975L6.38553 5.13513C6.49646 5.04004 6.64008 4.992 6.78586 5.0011C6.93167 5.01019 7.06815 5.07581 7.16635 5.18396L9.24051 7.46521C9.33868 7.573 9.39105 7.71478 9.38657 7.86047C9.38205 8.00623 9.32101 8.14447 9.21637 8.24603L7.83603 9.58984C7.89612 9.91095 8.09875 10.5626 8.76785 11.2323C9.43698 11.8998 10.087 12.1024 10.4103 12.1641L11.7536 10.7827C11.8552 10.6782 11.9935 10.6172 12.1392 10.6127C12.2849 10.6082 12.4266 10.6605 12.5345 10.7585Z" fill="#C281ED"/>
</svg>
