<svg width="20" height="23" viewBox="0 0 20 23" fill="none" xmlns="http://www.w3.org/2000/svg">
<path d="M11.9388 21.9472C11.7092 22.8011 10.8419 23 10 23C9.15817 23 8.2908 22.8011 8.06125 21.9472C7.71996 20.6701 7.14286 17.47 7.14286 15.981C7.14286 14.4017 8.53313 14.0156 10 14.0156C11.4669 14.0156 12.8571 14.4017 12.8571 15.981C12.8571 17.4611 12.2825 20.6609 11.9388 21.9472ZM7.00299 12.9624C6.16848 12.14 5.66558 10.9781 5.71799 9.7011C5.80969 7.46741 7.61063 5.66011 9.83067 5.57364C12.2706 5.47858 14.2857 7.44836 14.2857 9.88281C14.2857 11.0879 13.7918 12.179 12.9971 12.9623C12.8776 13.08 12.8899 13.2761 13.0251 13.375C13.4408 13.6789 13.7599 14.0642 13.973 14.5143C14.0508 14.6785 14.2631 14.7237 14.3949 14.5993C15.6817 13.3845 16.4731 11.6442 16.4266 9.72235C16.3438 6.29903 13.5875 3.51379 10.1858 3.41671C6.55665 3.31312 3.57143 6.2538 3.57143 9.88281C3.57143 11.7408 4.35411 13.4182 5.60491 14.5991C5.73674 14.7236 5.94915 14.6786 6.02692 14.5143C6.24005 14.0642 6.5592 13.6789 6.97491 13.375C7.11013 13.2762 7.12241 13.08 7.00299 12.9624V12.9624ZM10 0C4.47339 0 0 4.5005 0 10.0625C0 14.1051 2.3483 17.5037 5.61335 19.1101C5.80679 19.2053 6.02705 19.0408 5.99438 18.8267C5.88804 18.1298 5.80054 17.4365 5.75304 16.8349C5.74652 16.7524 5.70174 16.6783 5.63348 16.6322C3.51741 15.2034 2.12616 12.7682 2.14299 10.0131C2.16942 5.68994 5.68272 2.16757 9.97911 2.15629C14.3211 2.14488 17.8571 5.69596 17.8571 10.0625C17.8571 12.8446 16.4215 15.2954 14.2567 16.705C14.2121 17.3355 14.1197 18.079 14.0056 18.8266C13.9729 19.0408 14.1933 19.2053 14.3867 19.1101C17.6441 17.5073 20 14.1139 20 10.0625C20 4.5014 15.5275 0 10 0ZM10 7.1875C8.42205 7.1875 7.14286 8.47469 7.14286 10.0625C7.14286 11.6503 8.42205 12.9375 10 12.9375C11.5779 12.9375 12.8571 11.6503 12.8571 10.0625C12.8571 8.47469 11.5779 7.1875 10 7.1875Z" fill="#444849"/>
</svg>
