<svg width="22" height="22" viewBox="0 0 22 22" fill="none" xmlns="http://www.w3.org/2000/svg">
<path d="M0 0V22H22V0H0ZM2 2H20V20H2V2ZM13.69 5.629C11.94 5.629 10.482 7.207 10.889 9.154C9.74794 9.09681 8.63168 8.80014 7.61278 8.28329C6.59388 7.76643 5.69515 7.04095 4.975 6.154C4.71725 6.59285 4.58253 7.09306 4.585 7.602C4.58464 8.07455 4.70114 8.53986 4.92411 8.95649C5.14709 9.37313 5.46962 9.72817 5.863 9.99C5.40882 9.97404 4.96494 9.85031 4.568 9.629V9.662C4.56667 10.3247 4.7947 10.9674 5.2134 11.4811C5.6321 11.9948 6.21565 12.3477 6.865 12.48C6.44201 12.5896 6.00052 12.6076 5.57 12.533C5.75367 13.103 6.11097 13.6013 6.59188 13.9581C7.0728 14.3149 7.65325 14.5124 8.252 14.523C7.23642 15.3193 5.98251 15.7507 4.692 15.748C4.4609 15.7501 4.22986 15.7391 4 15.715C5.31466 16.5579 6.84436 17.004 8.406 17C13.682 17 16.57 12.629 16.57 8.836C16.57 8.713 16.57 8.588 16.56 8.465C17.1217 8.05579 17.6082 7.55235 17.998 6.977C17.473 7.20841 16.916 7.35911 16.346 7.424C16.9443 7.06821 17.3923 6.50645 17.606 5.844C17.044 6.17807 16.4281 6.41188 15.786 6.535C15.5175 6.248 15.1927 6.01943 14.8319 5.86355C14.4711 5.70767 14.082 5.62782 13.689 5.629H13.69Z" fill="#98989E"/>
</svg>
