<svg width="23" height="20" viewBox="0 0 23 20" fill="none" xmlns="http://www.w3.org/2000/svg">
<path d="M23 3.12906C22.1447 3.50425 21.2333 3.75294 20.2831 3.87369C21.2606 3.29006 22.0067 2.37294 22.3574 1.2675C21.4461 1.81087 20.4398 2.19469 19.3674 2.40887C18.5021 1.48744 17.2687 0.916748 15.9232 0.916748C13.3127 0.916748 11.2111 3.03562 11.2111 5.63319C11.2111 6.00694 11.2427 6.36631 11.3203 6.70844C7.40025 6.51725 3.93156 4.63844 1.60137 1.77637C1.19456 2.48219 0.955938 3.29006 0.955938 4.15975C0.955938 5.79275 1.79688 7.24031 3.05037 8.07837C2.29281 8.064 1.54962 7.84406 0.92 7.49762C0.92 7.512 0.92 7.53069 0.92 7.54937C0.92 9.84075 2.55444 11.744 4.69775 12.1824C4.31394 12.2874 3.89562 12.3377 3.4615 12.3377C3.15962 12.3377 2.85488 12.3204 2.56881 12.2572C3.17975 14.1245 4.91337 15.4973 6.97475 15.5419C5.3705 16.7968 3.33356 17.5529 1.12844 17.5529C0.74175 17.5529 0.370875 17.5357 0 17.4882C2.08869 18.8352 4.56406 19.6042 7.2335 19.6042C15.9102 19.6042 20.654 12.4167 20.654 6.18662C20.654 5.97819 20.6468 5.77694 20.6367 5.57712C21.5726 4.913 22.3589 4.08356 23 3.12906Z" fill="#444849"/>
</svg>
