<svg width="20" height="20" viewBox="0 0 20 20" fill="none" xmlns="http://www.w3.org/2000/svg">
<path id="Subtract" fill-rule="evenodd" clip-rule="evenodd" d="M10 20C15.5228 20 20 15.5228 20 10C20 4.47715 15.5228 0 10 0C4.47715 0 0 4.47715 0 10C0 15.5228 4.47715 20 10 20ZM12.25 10C12.25 10.34 12.22 10.67 12.18 11H13.87C13.95 10.68 14 10.345 14 10C14 9.655 13.95 9.32 13.87 9H12.18C12.22 9.33 12.25 9.66 12.25 10ZM11.985 12C11.825 12.625 11.595 13.225 11.295 13.78C12.2071 13.466 12.9756 12.8341 13.46 12H11.985ZM8.83 11H11.17C11.215 10.67 11.25 10.34 11.25 10C11.25 9.66 11.215 9.325 11.17 9H8.83C8.78 9.325 8.75 9.66 8.75 10C8.75 10.34 8.78 10.67 8.83 11ZM9.045 12C9.25 12.715 9.585 13.38 10 13.98C10.415 13.38 10.75 12.715 10.955 12H9.045ZM6.54 8H8C8.175 7.375 8.4 6.775 8.7 6.22C7.7874 6.53074 7.01943 7.16361 6.54 8ZM8 12H6.54C7.02242 12.8339 7.78931 13.4658 8.7 13.78C8.4 13.225 8.175 12.625 8 12ZM6 10C6 10.345 6.05 10.68 6.13 11H7.82C7.78 10.67 7.75 10.34 7.75 10C7.75 9.66 7.78 9.33 7.82 9H6.13C6.05 9.32 6 9.655 6 10ZM10.955 8C10.75 7.285 10.415 6.615 10 6.015C9.585 6.615 9.25 7.285 9.045 8H10.955ZM11.985 8H13.46C12.98 7.17 12.215 6.535 11.295 6.22C11.5968 6.78295 11.8285 7.38073 11.985 8ZM5 10C5 7.25 7.235 5 10 5C10.6566 5 11.3068 5.12933 11.9134 5.3806C12.52 5.63188 13.0712 6.00017 13.5355 6.46447C13.9998 6.92876 14.3681 7.47995 14.6194 8.08658C14.8707 8.69321 15 9.34339 15 10C15 11.3261 14.4732 12.5979 13.5355 13.5355C12.5979 14.4732 11.3261 15 10 15C9.34339 15 8.69321 14.8707 8.08658 14.6194C7.47995 14.3681 6.92876 13.9998 6.46447 13.5355C5.52678 12.5979 5 11.3261 5 10Z" fill="#C281ED"/>
</svg>
