<svg width="23" height="17" viewBox="0 0 23 17" fill="none" xmlns="http://www.w3.org/2000/svg">
<path fill-rule="evenodd" clip-rule="evenodd" d="M19.343 0.965502C20.7216 1.04313 21.3986 1.24725 22.0225 2.357C22.6722 3.46531 23 5.37431 23 8.73663V8.74094V8.74813C23 12.0946 22.6723 14.018 22.0239 15.1148C21.4001 16.2246 20.723 16.4258 19.3444 16.5193C17.9659 16.5983 14.5029 16.6458 11.5029 16.6458C8.49706 16.6458 5.03269 16.5983 3.65556 16.5178C2.27988 16.4244 1.60281 16.2231 0.973187 15.1134C0.330625 14.0166 0 12.0932 0 8.74669V8.74381V8.7395V8.73519C0 5.37431 0.330625 3.46531 0.973187 2.357C1.60281 1.24581 2.28131 1.04313 3.657 0.964064C5.03269 0.872064 8.49706 0.833252 11.5029 0.833252C14.5029 0.833252 17.9659 0.872064 19.343 0.965502ZM15.8125 8.7395L8.625 4.427V13.052L15.8125 8.7395Z" fill="#444849"/>
</svg>
